<svg width="268" height="558" viewBox="0 0 268 558" fill="none" xmlns="http://www.w3.org/2000/svg">
<g clip-path="url(#clip0_1310_162)">
<rect x="8" y="9.10352" width="249" height="540" rx="18" transform="rotate(-0.253898 8 9.10352)" fill="white"/>
<path d="M34.236 44.6887L34.3727 44.688C35.0016 44.6853 35.5253 44.6009 35.9439 44.435C36.3669 44.2645 36.7031 44.0306 36.9525 43.7332C37.2018 43.4359 37.3803 43.0865 37.4879 42.685C37.5955 42.2834 37.6482 41.848 37.6462 41.3786L37.6386 39.6628C37.6368 39.2572 37.5919 38.9019 37.5039 38.597C37.4205 38.2874 37.3009 38.0305 37.1451 37.8261C36.9937 37.6171 36.8176 37.4607 36.6166 37.3567C36.4202 37.2528 36.208 37.2013 35.9802 37.2023C35.7295 37.2034 35.5042 37.2614 35.3042 37.3762C35.1087 37.4865 34.943 37.6399 34.8072 37.8364C34.6759 38.0284 34.5743 38.2545 34.5026 38.5146C34.4353 38.7701 34.4024 39.0437 34.4037 39.3353C34.4049 39.6088 34.438 39.8729 34.5029 40.1279C34.5724 40.3782 34.6736 40.6011 34.8066 40.7964C34.9397 40.9918 35.1067 41.146 35.3077 41.2591C35.5087 41.3721 35.7437 41.428 36.0126 41.4268C36.2678 41.4257 36.5023 41.3768 36.716 41.2802C36.9298 41.179 37.116 41.0437 37.2748 40.8744C37.4335 40.705 37.558 40.5154 37.6482 40.3053C37.7385 40.0953 37.7876 39.8809 37.7958 39.6621L38.4255 39.8507C38.4271 40.1971 38.3557 40.5392 38.2113 40.8771C38.0715 41.2104 37.8746 41.5166 37.6207 41.7957C37.3712 42.0702 37.0783 42.2903 36.7417 42.4558C36.4098 42.6214 36.0479 42.705 35.6559 42.7068C35.182 42.7089 34.7623 42.6218 34.3969 42.4457C34.0361 42.265 33.7342 42.0203 33.4913 41.7115C33.253 41.4026 33.0737 41.0479 32.9534 40.6474C32.8332 40.2469 32.772 39.8256 32.7701 39.3836C32.768 38.9051 32.8389 38.4559 32.9829 38.0359C33.1268 37.616 33.3371 37.246 33.6137 36.9257C33.8902 36.6009 34.2264 36.3488 34.6221 36.1693C35.0223 35.9852 35.4753 35.8921 35.9812 35.8898C36.5189 35.8874 36.9911 35.9902 37.3976 36.198C37.8041 36.4058 38.1472 36.6937 38.4268 37.0616C38.7065 37.4295 38.918 37.857 39.0614 38.344C39.2049 38.831 39.2778 39.3547 39.2803 39.9153L39.2829 40.4963C39.2855 41.0842 39.2356 41.6518 39.1332 42.1992C39.0308 42.7419 38.8621 43.2463 38.6272 43.7122C38.3968 44.1735 38.091 44.5804 37.7098 44.933C37.333 45.2811 36.8694 45.5543 36.3188 45.7527C35.7728 45.9465 35.1307 46.0451 34.3924 46.0483L34.242 46.049L34.236 44.6887ZM41.2618 45.136C41.2607 44.8808 41.3463 44.6663 41.5187 44.4923C41.6911 44.3138 41.9254 44.2239 42.2217 44.2226C42.5224 44.2213 42.7575 44.3091 42.9269 44.4861C43.1009 44.6585 43.1884 44.8723 43.1895 45.1275C43.1907 45.3827 43.105 45.5973 42.9326 45.7712C42.7648 45.9451 42.5305 46.0328 42.2297 46.0341C41.9335 46.0354 41.6984 45.9499 41.5244 45.7775C41.3505 45.6051 41.263 45.3912 41.2618 45.136ZM41.2429 39.3118C41.2417 39.0566 41.3274 38.8421 41.4998 38.6681C41.6722 38.4896 41.9065 38.3997 42.2027 38.3984C42.5035 38.3971 42.7386 38.4849 42.908 38.6619C43.0819 38.8343 43.1694 39.0481 43.1706 39.3033C43.1717 39.5585 43.0861 39.7731 42.9137 39.947C42.7458 40.121 42.5115 40.2086 42.2107 40.2099C41.9145 40.2112 41.6794 40.1257 41.5055 39.9533C41.3315 39.7809 41.244 39.5671 41.2429 39.3118ZM46.8898 40.2097L47.8742 40.2053C48.257 40.2036 48.5734 40.1361 48.8235 40.0029C49.0781 39.8696 49.2664 39.6865 49.3884 39.4535C49.5105 39.2205 49.5708 38.9537 49.5695 38.6529C49.5681 38.3384 49.5099 38.0698 49.395 37.847C49.2846 37.6196 49.1152 37.4449 48.8868 37.3229C48.663 37.2008 48.3779 37.1406 48.0315 37.1421C47.7398 37.1434 47.4758 37.2038 47.2393 37.3233C47.0074 37.4383 46.8236 37.6032 46.6878 37.818C46.552 38.0282 46.4848 38.2792 46.4861 38.5708L44.8318 38.5782C44.8294 38.0495 44.9664 37.5795 45.2425 37.1681C45.5187 36.7567 45.8955 36.4338 46.373 36.1992C46.855 35.9601 47.3968 35.8392 47.9984 35.8366C48.641 35.8337 49.202 35.9383 49.6814 36.1504C50.1654 36.3579 50.5428 36.6707 50.8135 37.0888C51.0843 37.5068 51.221 38.0258 51.2237 38.6455C51.225 38.9281 51.1602 39.2155 51.0293 39.5077C50.8985 39.8 50.7037 40.0675 50.445 40.3101C50.1863 40.5483 49.8636 40.7434 49.4769 40.8955C49.0901 41.043 48.6416 41.1179 48.1312 41.1202L46.8939 41.1257L46.8898 40.2097ZM46.8955 41.4948L46.8915 40.5925L48.1288 40.587C48.7121 40.5844 49.2092 40.6506 49.6199 40.7855C50.0353 40.9204 50.3733 41.108 50.6342 41.3484C50.895 41.5842 51.0853 41.8545 51.2051 42.1593C51.3295 42.4641 51.3925 42.7874 51.394 43.1292C51.3961 43.594 51.3136 44.0091 51.1466 44.3745C50.9841 44.7352 50.7508 45.0416 50.4466 45.2936C50.1423 45.5456 49.7854 45.7363 49.3758 45.8657C48.9708 45.9951 48.529 46.0609 48.0505 46.063C47.6222 46.0649 47.2117 46.0075 46.8193 45.8907C46.4268 45.774 46.0752 45.6001 45.7642 45.369C45.4533 45.1334 45.2059 44.8406 45.0221 44.4905C44.8427 44.1358 44.7521 43.726 44.75 43.2612L46.3974 43.2539C46.3988 43.5501 46.4683 43.8118 46.606 44.0391C46.7483 44.2618 46.945 44.4364 47.1962 44.5629C47.452 44.6893 47.7439 44.7518 48.0721 44.7504C48.4184 44.7489 48.7166 44.686 48.9667 44.5619C49.2168 44.4377 49.4074 44.2546 49.5385 44.0124C49.6742 43.7703 49.7412 43.4783 49.7397 43.1365C49.738 42.7492 49.6614 42.4351 49.51 42.1942C49.3585 41.9533 49.1435 41.7765 48.865 41.6638C48.5865 41.5466 48.2581 41.4888 47.8799 41.4905L46.8955 41.4948ZM59.6758 40.0642L59.683 41.6911C59.6864 42.4704 59.6119 43.1361 59.4594 43.6882C59.3115 44.2357 59.0947 44.681 58.8091 45.0241C58.5235 45.3672 58.1805 45.6193 57.7802 45.7806C57.3844 45.9419 56.9404 46.0236 56.4483 46.0258C56.0563 46.0275 55.6915 45.979 55.3539 45.8802C55.0207 45.7815 54.7193 45.6256 54.4494 45.4126C54.1796 45.1996 53.9482 44.9249 53.7553 44.5885C53.567 44.2475 53.4193 43.8403 53.3124 43.3668C53.2101 42.8933 53.1575 42.3444 53.1547 41.72L53.1475 40.0931C53.1441 39.3092 53.2186 38.6481 53.3712 38.1097C53.5237 37.5667 53.7428 37.1259 54.0284 36.7874C54.314 36.4443 54.6547 36.1944 55.0505 36.0377C55.4508 35.881 55.8971 35.8016 56.3893 35.7994C56.7858 35.7976 57.1506 35.8461 57.4837 35.9449C57.8213 36.0391 58.1228 36.1905 58.388 36.3989C58.6579 36.6074 58.8869 36.8798 59.0753 37.2162C59.2681 37.548 59.4158 37.9507 59.5181 38.4242C59.6205 38.8932 59.673 39.4398 59.6758 40.0642ZM58.0366 41.9308L58.0272 39.8254C58.0255 39.4289 58.0012 39.0804 57.9543 38.7798C57.9073 38.4746 57.8378 38.2175 57.7458 38.0082C57.6582 37.7944 57.5481 37.6217 57.4153 37.4902C57.2826 37.354 57.1317 37.2567 56.9629 37.1982C56.794 37.1352 56.6047 37.1041 56.3951 37.105C56.1399 37.1062 55.9122 37.1573 55.7121 37.2585C55.512 37.355 55.3441 37.5107 55.2083 37.7255C55.0726 37.9403 54.969 38.2233 54.8977 38.5746C54.8308 38.9212 54.7985 39.3429 54.8007 39.8397L54.81 41.9451C54.8118 42.3462 54.8362 42.6992 54.8831 43.0044C54.93 43.3095 54.9995 43.5712 55.0917 43.7896C55.1838 44.0034 55.2939 44.1806 55.4221 44.3213C55.5549 44.4575 55.7057 44.5571 55.8746 44.6201C56.0481 44.6831 56.2374 44.7142 56.4424 44.7133C56.7022 44.7121 56.9321 44.661 57.1322 44.5598C57.3323 44.4587 57.5002 44.2984 57.6359 44.0791C57.7717 43.8552 57.8729 43.5653 57.9397 43.2096C58.0065 42.8538 58.0388 42.4276 58.0366 41.9308Z" fill="#2194F3"/>
<path opacity="0.1" d="M195.615 34.6891C192.215 34.7042 189.247 36.2049 187.132 38.5518L195.678 48.8557L204.132 38.4764C201.997 36.1484 199.015 34.6741 195.615 34.6891Z" fill="#2194F3"/>
<path d="M218.698 34.5869L204.595 48.8162L218.761 48.7534L218.698 34.5869Z" fill="#2194F3"/>
<path opacity="0.3" d="M230.613 34.1172L227.613 34.1305L227.62 35.6305L226.12 35.6372C225.568 35.6396 225.122 36.1453 225.125 36.7666L225.175 48.0165C225.178 48.6378 225.627 49.1395 226.18 49.137L232.18 49.1104C232.732 49.108 233.177 48.6023 233.175 47.981L233.125 36.7311C233.122 36.1098 232.672 35.6081 232.12 35.6106L230.62 35.6172L230.613 34.1172Z" fill="#2194F3"/>
<path d="M225.149 42.1416C225.151 42.7249 225.172 47.5082 225.175 48.0915C225.178 48.6714 225.627 49.1395 226.18 49.1371L232.18 49.1105C232.732 49.1081 233.178 48.636 233.175 48.0561C233.172 47.4728 233.151 42.6895 233.149 42.1062L225.149 42.1416Z" fill="#2194F3"/>
<path fill-rule="evenodd" clip-rule="evenodd" d="M133.078 26.5494C126.452 26.5787 121.102 31.9756 121.132 38.6024C121.161 45.2292 126.558 50.5785 133.185 50.5491C139.812 50.5198 145.161 45.1229 145.132 38.4961C145.102 31.8693 139.705 26.52 133.078 26.5494Z" fill="#2194F3"/>
<rect x="81.3303" y="534.784" width="108" height="4" rx="2" transform="rotate(-0.253898 81.3303 534.784)" fill="#2194F3"/>
</g>
<rect x="3.98231" y="5.12128" width="257" height="548" rx="22" transform="rotate(-0.253898 3.98231 5.12128)" stroke="#EADDFF" stroke-width="8"/>
<defs>
<clipPath id="clip0_1310_162">
<rect x="8" y="9.10352" width="249" height="540" rx="18" transform="rotate(-0.253898 8 9.10352)" fill="white"/>
</clipPath>
</defs>
</svg>
