<svg width="720" height="346" viewBox="0 0 720 346" fill="none" xmlns="http://www.w3.org/2000/svg">
<rect y="151" width="720" height="195" rx="28" fill="#FFCC9B"/>
<path d="M0 179C0 163.536 12.536 151 28 151H692C707.464 151 720 163.536 720 179V207H0V179Z" fill="#F7902B"/>
<g clip-path="url(#clip0_1323_631)">
<path d="M23.825 180L29.425 185.6L28 187L20 179L28 171L29.425 172.4L23.825 178H36V180H23.825Z" fill="#49454F"/>
</g>
<path d="M64.5469 182.773V184H58.5234V182.773H64.5469ZM58.8281 172.625V184H57.3203V172.625H58.8281ZM63.75 177.516V178.742H58.5234V177.516H63.75ZM64.4688 172.625V173.859H58.5234V172.625H64.4688ZM71.6172 181.758C71.6172 181.549 71.5703 181.357 71.4766 181.18C71.388 180.997 71.2031 180.833 70.9219 180.688C70.6458 180.536 70.2292 180.406 69.6719 180.297C69.2031 180.198 68.7786 180.081 68.3984 179.945C68.0234 179.81 67.7031 179.646 67.4375 179.453C67.1771 179.26 66.9766 179.034 66.8359 178.773C66.6953 178.513 66.625 178.208 66.625 177.859C66.625 177.526 66.6979 177.211 66.8438 176.914C66.9948 176.617 67.2057 176.354 67.4766 176.125C67.7526 175.896 68.0833 175.716 68.4688 175.586C68.8542 175.456 69.2839 175.391 69.7578 175.391C70.4349 175.391 71.013 175.51 71.4922 175.75C71.9714 175.99 72.3385 176.31 72.5938 176.711C72.849 177.107 72.9766 177.547 72.9766 178.031H71.5312C71.5312 177.797 71.4609 177.57 71.3203 177.352C71.1849 177.128 70.9844 176.943 70.7188 176.797C70.4583 176.651 70.138 176.578 69.7578 176.578C69.3568 176.578 69.0312 176.641 68.7812 176.766C68.5365 176.885 68.3568 177.039 68.2422 177.227C68.1328 177.414 68.0781 177.612 68.0781 177.82C68.0781 177.977 68.1042 178.117 68.1562 178.242C68.2135 178.362 68.3125 178.474 68.4531 178.578C68.5938 178.677 68.7917 178.771 69.0469 178.859C69.3021 178.948 69.6276 179.036 70.0234 179.125C70.7161 179.281 71.2865 179.469 71.7344 179.688C72.1823 179.906 72.5156 180.174 72.7344 180.492C72.9531 180.81 73.0625 181.195 73.0625 181.648C73.0625 182.018 72.9844 182.357 72.8281 182.664C72.6771 182.971 72.4557 183.237 72.1641 183.461C71.8776 183.68 71.5339 183.852 71.1328 183.977C70.737 184.096 70.2917 184.156 69.7969 184.156C69.0521 184.156 68.4219 184.023 67.9062 183.758C67.3906 183.492 67 183.148 66.7344 182.727C66.4688 182.305 66.3359 181.859 66.3359 181.391H67.7891C67.8099 181.786 67.9245 182.102 68.1328 182.336C68.3411 182.565 68.5964 182.729 68.8984 182.828C69.2005 182.922 69.5 182.969 69.7969 182.969C70.1927 182.969 70.5234 182.917 70.7891 182.812C71.0599 182.708 71.2656 182.565 71.4062 182.383C71.5469 182.201 71.6172 181.992 71.6172 181.758ZM78.8438 182.969C79.1875 182.969 79.5052 182.898 79.7969 182.758C80.0885 182.617 80.3281 182.424 80.5156 182.18C80.7031 181.93 80.8099 181.646 80.8359 181.328H82.2109C82.1849 181.828 82.0156 182.294 81.7031 182.727C81.3958 183.154 80.9922 183.5 80.4922 183.766C79.9922 184.026 79.4427 184.156 78.8438 184.156C78.2083 184.156 77.6536 184.044 77.1797 183.82C76.7109 183.596 76.3203 183.289 76.0078 182.898C75.7005 182.508 75.4688 182.06 75.3125 181.555C75.1615 181.044 75.0859 180.505 75.0859 179.938V179.609C75.0859 179.042 75.1615 178.505 75.3125 178C75.4688 177.49 75.7005 177.039 76.0078 176.648C76.3203 176.258 76.7109 175.951 77.1797 175.727C77.6536 175.503 78.2083 175.391 78.8438 175.391C79.5052 175.391 80.0833 175.526 80.5781 175.797C81.0729 176.062 81.4609 176.427 81.7422 176.891C82.0286 177.349 82.1849 177.87 82.2109 178.453H80.8359C80.8099 178.104 80.7109 177.789 80.5391 177.508C80.3724 177.227 80.1432 177.003 79.8516 176.836C79.5651 176.664 79.2292 176.578 78.8438 176.578C78.401 176.578 78.0286 176.667 77.7266 176.844C77.4297 177.016 77.1927 177.25 77.0156 177.547C76.8438 177.839 76.7188 178.164 76.6406 178.523C76.5677 178.878 76.5312 179.24 76.5312 179.609V179.938C76.5312 180.307 76.5677 180.672 76.6406 181.031C76.7135 181.391 76.8359 181.716 77.0078 182.008C77.1849 182.299 77.4219 182.534 77.7188 182.711C78.0208 182.883 78.3958 182.969 78.8438 182.969ZM85.7812 176.875V184H84.3359V175.547H85.7422L85.7812 176.875ZM88.4219 175.5L88.4141 176.844C88.2943 176.818 88.1797 176.802 88.0703 176.797C87.9661 176.786 87.8464 176.781 87.7109 176.781C87.3776 176.781 87.0833 176.833 86.8281 176.938C86.5729 177.042 86.3568 177.188 86.1797 177.375C86.0026 177.562 85.862 177.786 85.7578 178.047C85.6589 178.302 85.5938 178.583 85.5625 178.891L85.1562 179.125C85.1562 178.615 85.2057 178.135 85.3047 177.688C85.4089 177.24 85.5677 176.844 85.7812 176.5C85.9948 176.151 86.2656 175.88 86.5938 175.688C86.9271 175.49 87.3229 175.391 87.7812 175.391C87.8854 175.391 88.0052 175.404 88.1406 175.43C88.276 175.451 88.3698 175.474 88.4219 175.5ZM93.6094 184.156C93.0208 184.156 92.487 184.057 92.0078 183.859C91.5339 183.656 91.125 183.372 90.7812 183.008C90.4427 182.643 90.1823 182.211 90 181.711C89.8177 181.211 89.7266 180.664 89.7266 180.07V179.742C89.7266 179.055 89.8281 178.443 90.0312 177.906C90.2344 177.365 90.5104 176.906 90.8594 176.531C91.2083 176.156 91.6042 175.872 92.0469 175.68C92.4896 175.487 92.9479 175.391 93.4219 175.391C94.026 175.391 94.5469 175.495 94.9844 175.703C95.4271 175.911 95.7891 176.203 96.0703 176.578C96.3516 176.948 96.5599 177.385 96.6953 177.891C96.8307 178.391 96.8984 178.938 96.8984 179.531V180.18H90.5859V179H95.4531V178.891C95.4323 178.516 95.3542 178.151 95.2188 177.797C95.0885 177.443 94.8802 177.151 94.5938 176.922C94.3073 176.693 93.9167 176.578 93.4219 176.578C93.0938 176.578 92.7917 176.648 92.5156 176.789C92.2396 176.924 92.0026 177.128 91.8047 177.398C91.6068 177.669 91.4531 178 91.3438 178.391C91.2344 178.781 91.1797 179.232 91.1797 179.742V180.07C91.1797 180.471 91.2344 180.849 91.3438 181.203C91.4583 181.552 91.6224 181.859 91.8359 182.125C92.0547 182.391 92.3177 182.599 92.625 182.75C92.9375 182.901 93.2917 182.977 93.6875 182.977C94.1979 182.977 94.6302 182.872 94.9844 182.664C95.3385 182.456 95.6484 182.177 95.9141 181.828L96.7891 182.523C96.6068 182.799 96.375 183.062 96.0938 183.312C95.8125 183.562 95.4661 183.766 95.0547 183.922C94.6484 184.078 94.1667 184.156 93.6094 184.156ZM101.547 182.695L103.859 175.547H105.336L102.297 184H101.328L101.547 182.695ZM99.6172 175.547L102 182.734L102.164 184H101.195L98.1328 175.547H99.6172ZM112.086 182.555V178.203C112.086 177.87 112.018 177.581 111.883 177.336C111.753 177.086 111.555 176.893 111.289 176.758C111.023 176.622 110.695 176.555 110.305 176.555C109.94 176.555 109.62 176.617 109.344 176.742C109.073 176.867 108.859 177.031 108.703 177.234C108.552 177.438 108.477 177.656 108.477 177.891H107.031C107.031 177.589 107.109 177.289 107.266 176.992C107.422 176.695 107.646 176.427 107.938 176.188C108.234 175.943 108.589 175.75 109 175.609C109.417 175.464 109.88 175.391 110.391 175.391C111.005 175.391 111.547 175.495 112.016 175.703C112.49 175.911 112.859 176.227 113.125 176.648C113.396 177.065 113.531 177.589 113.531 178.219V182.156C113.531 182.438 113.555 182.737 113.602 183.055C113.654 183.372 113.729 183.646 113.828 183.875V184H112.32C112.247 183.833 112.19 183.612 112.148 183.336C112.107 183.055 112.086 182.794 112.086 182.555ZM112.336 178.875L112.352 179.891H110.891C110.479 179.891 110.112 179.924 109.789 179.992C109.466 180.055 109.195 180.151 108.977 180.281C108.758 180.411 108.591 180.576 108.477 180.773C108.362 180.966 108.305 181.193 108.305 181.453C108.305 181.719 108.365 181.961 108.484 182.18C108.604 182.398 108.784 182.573 109.023 182.703C109.268 182.828 109.568 182.891 109.922 182.891C110.365 182.891 110.755 182.797 111.094 182.609C111.432 182.422 111.701 182.193 111.898 181.922C112.102 181.651 112.211 181.388 112.227 181.133L112.844 181.828C112.807 182.047 112.708 182.289 112.547 182.555C112.385 182.82 112.169 183.076 111.898 183.32C111.633 183.56 111.315 183.76 110.945 183.922C110.581 184.078 110.169 184.156 109.711 184.156C109.138 184.156 108.635 184.044 108.203 183.82C107.776 183.596 107.443 183.297 107.203 182.922C106.969 182.542 106.852 182.117 106.852 181.648C106.852 181.195 106.94 180.797 107.117 180.453C107.294 180.104 107.549 179.815 107.883 179.586C108.216 179.352 108.617 179.174 109.086 179.055C109.555 178.935 110.078 178.875 110.656 178.875H112.336ZM125.695 181.758C125.695 181.549 125.648 181.357 125.555 181.18C125.466 180.997 125.281 180.833 125 180.688C124.724 180.536 124.307 180.406 123.75 180.297C123.281 180.198 122.857 180.081 122.477 179.945C122.102 179.81 121.781 179.646 121.516 179.453C121.255 179.26 121.055 179.034 120.914 178.773C120.773 178.513 120.703 178.208 120.703 177.859C120.703 177.526 120.776 177.211 120.922 176.914C121.073 176.617 121.284 176.354 121.555 176.125C121.831 175.896 122.161 175.716 122.547 175.586C122.932 175.456 123.362 175.391 123.836 175.391C124.513 175.391 125.091 175.51 125.57 175.75C126.049 175.99 126.417 176.31 126.672 176.711C126.927 177.107 127.055 177.547 127.055 178.031H125.609C125.609 177.797 125.539 177.57 125.398 177.352C125.263 177.128 125.062 176.943 124.797 176.797C124.536 176.651 124.216 176.578 123.836 176.578C123.435 176.578 123.109 176.641 122.859 176.766C122.615 176.885 122.435 177.039 122.32 177.227C122.211 177.414 122.156 177.612 122.156 177.82C122.156 177.977 122.182 178.117 122.234 178.242C122.292 178.362 122.391 178.474 122.531 178.578C122.672 178.677 122.87 178.771 123.125 178.859C123.38 178.948 123.706 179.036 124.102 179.125C124.794 179.281 125.365 179.469 125.812 179.688C126.26 179.906 126.594 180.174 126.812 180.492C127.031 180.81 127.141 181.195 127.141 181.648C127.141 182.018 127.062 182.357 126.906 182.664C126.755 182.971 126.534 183.237 126.242 183.461C125.956 183.68 125.612 183.852 125.211 183.977C124.815 184.096 124.37 184.156 123.875 184.156C123.13 184.156 122.5 184.023 121.984 183.758C121.469 183.492 121.078 183.148 120.812 182.727C120.547 182.305 120.414 181.859 120.414 181.391H121.867C121.888 181.786 122.003 182.102 122.211 182.336C122.419 182.565 122.674 182.729 122.977 182.828C123.279 182.922 123.578 182.969 123.875 182.969C124.271 182.969 124.602 182.917 124.867 182.812C125.138 182.708 125.344 182.565 125.484 182.383C125.625 182.201 125.695 181.992 125.695 181.758ZM133.047 184.156C132.458 184.156 131.924 184.057 131.445 183.859C130.971 183.656 130.562 183.372 130.219 183.008C129.88 182.643 129.62 182.211 129.438 181.711C129.255 181.211 129.164 180.664 129.164 180.07V179.742C129.164 179.055 129.266 178.443 129.469 177.906C129.672 177.365 129.948 176.906 130.297 176.531C130.646 176.156 131.042 175.872 131.484 175.68C131.927 175.487 132.385 175.391 132.859 175.391C133.464 175.391 133.984 175.495 134.422 175.703C134.865 175.911 135.227 176.203 135.508 176.578C135.789 176.948 135.997 177.385 136.133 177.891C136.268 178.391 136.336 178.938 136.336 179.531V180.18H130.023V179H134.891V178.891C134.87 178.516 134.792 178.151 134.656 177.797C134.526 177.443 134.318 177.151 134.031 176.922C133.745 176.693 133.354 176.578 132.859 176.578C132.531 176.578 132.229 176.648 131.953 176.789C131.677 176.924 131.44 177.128 131.242 177.398C131.044 177.669 130.891 178 130.781 178.391C130.672 178.781 130.617 179.232 130.617 179.742V180.07C130.617 180.471 130.672 180.849 130.781 181.203C130.896 181.552 131.06 181.859 131.273 182.125C131.492 182.391 131.755 182.599 132.062 182.75C132.375 182.901 132.729 182.977 133.125 182.977C133.635 182.977 134.068 182.872 134.422 182.664C134.776 182.456 135.086 182.177 135.352 181.828L136.227 182.523C136.044 182.799 135.812 183.062 135.531 183.312C135.25 183.562 134.904 183.766 134.492 183.922C134.086 184.078 133.604 184.156 133.047 184.156ZM143.695 182.047V175.547H145.148V184H143.766L143.695 182.047ZM143.969 180.266L144.57 180.25C144.57 180.812 144.51 181.333 144.391 181.812C144.276 182.286 144.089 182.698 143.828 183.047C143.568 183.396 143.227 183.669 142.805 183.867C142.383 184.06 141.87 184.156 141.266 184.156C140.854 184.156 140.477 184.096 140.133 183.977C139.794 183.857 139.503 183.672 139.258 183.422C139.013 183.172 138.823 182.846 138.688 182.445C138.557 182.044 138.492 181.562 138.492 181V175.547H139.938V181.016C139.938 181.396 139.979 181.711 140.062 181.961C140.151 182.206 140.268 182.401 140.414 182.547C140.565 182.688 140.732 182.786 140.914 182.844C141.102 182.901 141.294 182.93 141.492 182.93C142.107 182.93 142.594 182.812 142.953 182.578C143.312 182.339 143.57 182.018 143.727 181.617C143.888 181.211 143.969 180.76 143.969 180.266ZM157.648 182.359V172H159.102V184H157.773L157.648 182.359ZM151.961 179.867V179.703C151.961 179.057 152.039 178.471 152.195 177.945C152.357 177.414 152.583 176.958 152.875 176.578C153.172 176.198 153.523 175.906 153.93 175.703C154.341 175.495 154.799 175.391 155.305 175.391C155.836 175.391 156.299 175.484 156.695 175.672C157.096 175.854 157.435 176.122 157.711 176.477C157.992 176.826 158.214 177.247 158.375 177.742C158.536 178.237 158.648 178.797 158.711 179.422V180.141C158.654 180.76 158.542 181.318 158.375 181.812C158.214 182.307 157.992 182.729 157.711 183.078C157.435 183.427 157.096 183.695 156.695 183.883C156.294 184.065 155.826 184.156 155.289 184.156C154.794 184.156 154.341 184.049 153.93 183.836C153.523 183.622 153.172 183.323 152.875 182.938C152.583 182.552 152.357 182.099 152.195 181.578C152.039 181.052 151.961 180.482 151.961 179.867ZM153.414 179.703V179.867C153.414 180.289 153.456 180.685 153.539 181.055C153.628 181.424 153.763 181.75 153.945 182.031C154.128 182.312 154.359 182.534 154.641 182.695C154.922 182.852 155.258 182.93 155.648 182.93C156.128 182.93 156.521 182.828 156.828 182.625C157.141 182.422 157.391 182.154 157.578 181.82C157.766 181.487 157.911 181.125 158.016 180.734V178.852C157.953 178.565 157.862 178.289 157.742 178.023C157.628 177.753 157.477 177.513 157.289 177.305C157.107 177.091 156.88 176.922 156.609 176.797C156.344 176.672 156.029 176.609 155.664 176.609C155.268 176.609 154.927 176.693 154.641 176.859C154.359 177.021 154.128 177.245 153.945 177.531C153.763 177.812 153.628 178.141 153.539 178.516C153.456 178.885 153.414 179.281 153.414 179.703ZM165.359 184.156C164.771 184.156 164.237 184.057 163.758 183.859C163.284 183.656 162.875 183.372 162.531 183.008C162.193 182.643 161.932 182.211 161.75 181.711C161.568 181.211 161.477 180.664 161.477 180.07V179.742C161.477 179.055 161.578 178.443 161.781 177.906C161.984 177.365 162.26 176.906 162.609 176.531C162.958 176.156 163.354 175.872 163.797 175.68C164.24 175.487 164.698 175.391 165.172 175.391C165.776 175.391 166.297 175.495 166.734 175.703C167.177 175.911 167.539 176.203 167.82 176.578C168.102 176.948 168.31 177.385 168.445 177.891C168.581 178.391 168.648 178.938 168.648 179.531V180.18H162.336V179H167.203V178.891C167.182 178.516 167.104 178.151 166.969 177.797C166.839 177.443 166.63 177.151 166.344 176.922C166.057 176.693 165.667 176.578 165.172 176.578C164.844 176.578 164.542 176.648 164.266 176.789C163.99 176.924 163.753 177.128 163.555 177.398C163.357 177.669 163.203 178 163.094 178.391C162.984 178.781 162.93 179.232 162.93 179.742V180.07C162.93 180.471 162.984 180.849 163.094 181.203C163.208 181.552 163.372 181.859 163.586 182.125C163.805 182.391 164.068 182.599 164.375 182.75C164.688 182.901 165.042 182.977 165.438 182.977C165.948 182.977 166.38 182.872 166.734 182.664C167.089 182.456 167.398 182.177 167.664 181.828L168.539 182.523C168.357 182.799 168.125 183.062 167.844 183.312C167.562 183.562 167.216 183.766 166.805 183.922C166.398 184.078 165.917 184.156 165.359 184.156ZM175.758 181.758C175.758 181.549 175.711 181.357 175.617 181.18C175.529 180.997 175.344 180.833 175.062 180.688C174.786 180.536 174.37 180.406 173.812 180.297C173.344 180.198 172.919 180.081 172.539 179.945C172.164 179.81 171.844 179.646 171.578 179.453C171.318 179.26 171.117 179.034 170.977 178.773C170.836 178.513 170.766 178.208 170.766 177.859C170.766 177.526 170.839 177.211 170.984 176.914C171.135 176.617 171.346 176.354 171.617 176.125C171.893 175.896 172.224 175.716 172.609 175.586C172.995 175.456 173.424 175.391 173.898 175.391C174.576 175.391 175.154 175.51 175.633 175.75C176.112 175.99 176.479 176.31 176.734 176.711C176.99 177.107 177.117 177.547 177.117 178.031H175.672C175.672 177.797 175.602 177.57 175.461 177.352C175.326 177.128 175.125 176.943 174.859 176.797C174.599 176.651 174.279 176.578 173.898 176.578C173.497 176.578 173.172 176.641 172.922 176.766C172.677 176.885 172.497 177.039 172.383 177.227C172.273 177.414 172.219 177.612 172.219 177.82C172.219 177.977 172.245 178.117 172.297 178.242C172.354 178.362 172.453 178.474 172.594 178.578C172.734 178.677 172.932 178.771 173.188 178.859C173.443 178.948 173.768 179.036 174.164 179.125C174.857 179.281 175.427 179.469 175.875 179.688C176.323 179.906 176.656 180.174 176.875 180.492C177.094 180.81 177.203 181.195 177.203 181.648C177.203 182.018 177.125 182.357 176.969 182.664C176.818 182.971 176.596 183.237 176.305 183.461C176.018 183.68 175.674 183.852 175.273 183.977C174.878 184.096 174.432 184.156 173.938 184.156C173.193 184.156 172.562 184.023 172.047 183.758C171.531 183.492 171.141 183.148 170.875 182.727C170.609 182.305 170.477 181.859 170.477 181.391H171.93C171.951 181.786 172.065 182.102 172.273 182.336C172.482 182.565 172.737 182.729 173.039 182.828C173.341 182.922 173.641 182.969 173.938 182.969C174.333 182.969 174.664 182.917 174.93 182.812C175.201 182.708 175.406 182.565 175.547 182.383C175.688 182.201 175.758 181.992 175.758 181.758ZM184.586 182.555V178.203C184.586 177.87 184.518 177.581 184.383 177.336C184.253 177.086 184.055 176.893 183.789 176.758C183.523 176.622 183.195 176.555 182.805 176.555C182.44 176.555 182.12 176.617 181.844 176.742C181.573 176.867 181.359 177.031 181.203 177.234C181.052 177.438 180.977 177.656 180.977 177.891H179.531C179.531 177.589 179.609 177.289 179.766 176.992C179.922 176.695 180.146 176.427 180.438 176.188C180.734 175.943 181.089 175.75 181.5 175.609C181.917 175.464 182.38 175.391 182.891 175.391C183.505 175.391 184.047 175.495 184.516 175.703C184.99 175.911 185.359 176.227 185.625 176.648C185.896 177.065 186.031 177.589 186.031 178.219V182.156C186.031 182.438 186.055 182.737 186.102 183.055C186.154 183.372 186.229 183.646 186.328 183.875V184H184.82C184.747 183.833 184.69 183.612 184.648 183.336C184.607 183.055 184.586 182.794 184.586 182.555ZM184.836 178.875L184.852 179.891H183.391C182.979 179.891 182.612 179.924 182.289 179.992C181.966 180.055 181.695 180.151 181.477 180.281C181.258 180.411 181.091 180.576 180.977 180.773C180.862 180.966 180.805 181.193 180.805 181.453C180.805 181.719 180.865 181.961 180.984 182.18C181.104 182.398 181.284 182.573 181.523 182.703C181.768 182.828 182.068 182.891 182.422 182.891C182.865 182.891 183.255 182.797 183.594 182.609C183.932 182.422 184.201 182.193 184.398 181.922C184.602 181.651 184.711 181.388 184.727 181.133L185.344 181.828C185.307 182.047 185.208 182.289 185.047 182.555C184.885 182.82 184.669 183.076 184.398 183.32C184.133 183.56 183.815 183.76 183.445 183.922C183.081 184.078 182.669 184.156 182.211 184.156C181.638 184.156 181.135 184.044 180.703 183.82C180.276 183.596 179.943 183.297 179.703 182.922C179.469 182.542 179.352 182.117 179.352 181.648C179.352 181.195 179.44 180.797 179.617 180.453C179.794 180.104 180.049 179.815 180.383 179.586C180.716 179.352 181.117 179.174 181.586 179.055C182.055 178.935 182.578 178.875 183.156 178.875H184.836ZM188.797 172H190.25V182.359L190.125 184H188.797V172ZM195.961 179.703V179.867C195.961 180.482 195.888 181.052 195.742 181.578C195.596 182.099 195.383 182.552 195.102 182.938C194.82 183.323 194.477 183.622 194.07 183.836C193.664 184.049 193.198 184.156 192.672 184.156C192.135 184.156 191.664 184.065 191.258 183.883C190.857 183.695 190.518 183.427 190.242 183.078C189.966 182.729 189.745 182.307 189.578 181.812C189.417 181.318 189.305 180.76 189.242 180.141V179.422C189.305 178.797 189.417 178.237 189.578 177.742C189.745 177.247 189.966 176.826 190.242 176.477C190.518 176.122 190.857 175.854 191.258 175.672C191.659 175.484 192.125 175.391 192.656 175.391C193.188 175.391 193.659 175.495 194.07 175.703C194.482 175.906 194.826 176.198 195.102 176.578C195.383 176.958 195.596 177.414 195.742 177.945C195.888 178.471 195.961 179.057 195.961 179.703ZM194.508 179.867V179.703C194.508 179.281 194.469 178.885 194.391 178.516C194.312 178.141 194.188 177.812 194.016 177.531C193.844 177.245 193.617 177.021 193.336 176.859C193.055 176.693 192.708 176.609 192.297 176.609C191.932 176.609 191.615 176.672 191.344 176.797C191.078 176.922 190.852 177.091 190.664 177.305C190.477 177.513 190.323 177.753 190.203 178.023C190.089 178.289 190.003 178.565 189.945 178.852V180.734C190.029 181.099 190.164 181.451 190.352 181.789C190.544 182.122 190.799 182.396 191.117 182.609C191.44 182.823 191.839 182.93 192.312 182.93C192.703 182.93 193.036 182.852 193.312 182.695C193.594 182.534 193.82 182.312 193.992 182.031C194.169 181.75 194.299 181.424 194.383 181.055C194.466 180.685 194.508 180.289 194.508 179.867ZM203.273 182.555V178.203C203.273 177.87 203.206 177.581 203.07 177.336C202.94 177.086 202.742 176.893 202.477 176.758C202.211 176.622 201.883 176.555 201.492 176.555C201.128 176.555 200.807 176.617 200.531 176.742C200.26 176.867 200.047 177.031 199.891 177.234C199.74 177.438 199.664 177.656 199.664 177.891H198.219C198.219 177.589 198.297 177.289 198.453 176.992C198.609 176.695 198.833 176.427 199.125 176.188C199.422 175.943 199.776 175.75 200.188 175.609C200.604 175.464 201.068 175.391 201.578 175.391C202.193 175.391 202.734 175.495 203.203 175.703C203.677 175.911 204.047 176.227 204.312 176.648C204.583 177.065 204.719 177.589 204.719 178.219V182.156C204.719 182.438 204.742 182.737 204.789 183.055C204.841 183.372 204.917 183.646 205.016 183.875V184H203.508C203.435 183.833 203.378 183.612 203.336 183.336C203.294 183.055 203.273 182.794 203.273 182.555ZM203.523 178.875L203.539 179.891H202.078C201.667 179.891 201.299 179.924 200.977 179.992C200.654 180.055 200.383 180.151 200.164 180.281C199.945 180.411 199.779 180.576 199.664 180.773C199.549 180.966 199.492 181.193 199.492 181.453C199.492 181.719 199.552 181.961 199.672 182.18C199.792 182.398 199.971 182.573 200.211 182.703C200.456 182.828 200.755 182.891 201.109 182.891C201.552 182.891 201.943 182.797 202.281 182.609C202.62 182.422 202.888 182.193 203.086 181.922C203.289 181.651 203.398 181.388 203.414 181.133L204.031 181.828C203.995 182.047 203.896 182.289 203.734 182.555C203.573 182.82 203.357 183.076 203.086 183.32C202.82 183.56 202.503 183.76 202.133 183.922C201.768 184.078 201.357 184.156 200.898 184.156C200.326 184.156 199.823 184.044 199.391 183.82C198.964 183.596 198.63 183.297 198.391 182.922C198.156 182.542 198.039 182.117 198.039 181.648C198.039 181.195 198.128 180.797 198.305 180.453C198.482 180.104 198.737 179.815 199.07 179.586C199.404 179.352 199.805 179.174 200.273 179.055C200.742 178.935 201.266 178.875 201.844 178.875H203.523ZM209.648 184H208.203V174.656C208.203 174.047 208.312 173.534 208.531 173.117C208.755 172.695 209.076 172.378 209.492 172.164C209.909 171.945 210.404 171.836 210.977 171.836C211.143 171.836 211.31 171.846 211.477 171.867C211.648 171.888 211.815 171.919 211.977 171.961L211.898 173.141C211.789 173.115 211.664 173.096 211.523 173.086C211.388 173.076 211.253 173.07 211.117 173.07C210.81 173.07 210.544 173.133 210.32 173.258C210.102 173.378 209.935 173.555 209.82 173.789C209.706 174.023 209.648 174.312 209.648 174.656V184ZM211.445 175.547V176.656H206.867V175.547H211.445ZM213.172 179.867V179.688C213.172 179.078 213.26 178.513 213.438 177.992C213.615 177.466 213.87 177.01 214.203 176.625C214.536 176.234 214.94 175.932 215.414 175.719C215.888 175.5 216.419 175.391 217.008 175.391C217.602 175.391 218.135 175.5 218.609 175.719C219.089 175.932 219.495 176.234 219.828 176.625C220.167 177.01 220.424 177.466 220.602 177.992C220.779 178.513 220.867 179.078 220.867 179.688V179.867C220.867 180.477 220.779 181.042 220.602 181.562C220.424 182.083 220.167 182.539 219.828 182.93C219.495 183.315 219.091 183.617 218.617 183.836C218.148 184.049 217.617 184.156 217.023 184.156C216.43 184.156 215.896 184.049 215.422 183.836C214.948 183.617 214.542 183.315 214.203 182.93C213.87 182.539 213.615 182.083 213.438 181.562C213.26 181.042 213.172 180.477 213.172 179.867ZM214.617 179.688V179.867C214.617 180.289 214.667 180.688 214.766 181.062C214.865 181.432 215.013 181.76 215.211 182.047C215.414 182.333 215.667 182.56 215.969 182.727C216.271 182.888 216.622 182.969 217.023 182.969C217.419 182.969 217.766 182.888 218.062 182.727C218.365 182.56 218.615 182.333 218.812 182.047C219.01 181.76 219.159 181.432 219.258 181.062C219.362 180.688 219.414 180.289 219.414 179.867V179.688C219.414 179.271 219.362 178.878 219.258 178.508C219.159 178.133 219.008 177.802 218.805 177.516C218.607 177.224 218.357 176.995 218.055 176.828C217.758 176.661 217.409 176.578 217.008 176.578C216.612 176.578 216.263 176.661 215.961 176.828C215.664 176.995 215.414 177.224 215.211 177.516C215.013 177.802 214.865 178.133 214.766 178.508C214.667 178.878 214.617 179.271 214.617 179.688Z" fill="#1D1B20"/>
<path d="M224 171V187" stroke="#6750A4" stroke-linecap="square"/>
<g clip-path="url(#clip1_1323_631)">
<path d="M686.4 186L685 184.6L690.6 179L685 173.4L686.4 172L692 177.6L697.6 172L699 173.4L693.4 179L699 184.6L697.6 186L692 180.4L686.4 186Z" fill="#49454F"/>
</g>
<line y1="207.5" x2="720" y2="207.5" stroke="#79747E"/>
<rect width="712" height="116" rx="28" fill="#FFCC9B"/>
<path d="M0 28C0 12.536 12.536 0 28 0H684C699.464 0 712 12.536 712 28V56H0V28Z" fill="#F7902B"/>
<g clip-path="url(#clip2_1323_631)">
<path d="M23.825 29L29.425 34.6L28 36L20 28L28 20L29.425 21.4L23.825 27H36V29H23.825Z" fill="#49454F"/>
</g>
<path d="M64.5469 31.7734V33H58.5234V31.7734H64.5469ZM58.8281 21.625V33H57.3203V21.625H58.8281ZM63.75 26.5156V27.7422H58.5234V26.5156H63.75ZM64.4688 21.625V22.8594H58.5234V21.625H64.4688ZM71.6172 30.7578C71.6172 30.5495 71.5703 30.3568 71.4766 30.1797C71.388 29.9974 71.2031 29.8333 70.9219 29.6875C70.6458 29.5365 70.2292 29.4062 69.6719 29.2969C69.2031 29.1979 68.7786 29.0807 68.3984 28.9453C68.0234 28.8099 67.7031 28.6458 67.4375 28.4531C67.1771 28.2604 66.9766 28.0339 66.8359 27.7734C66.6953 27.513 66.625 27.2083 66.625 26.8594C66.625 26.526 66.6979 26.2109 66.8438 25.9141C66.9948 25.6172 67.2057 25.3542 67.4766 25.125C67.7526 24.8958 68.0833 24.7161 68.4688 24.5859C68.8542 24.4557 69.2839 24.3906 69.7578 24.3906C70.4349 24.3906 71.013 24.5104 71.4922 24.75C71.9714 24.9896 72.3385 25.3099 72.5938 25.7109C72.849 26.1068 72.9766 26.5469 72.9766 27.0312H71.5312C71.5312 26.7969 71.4609 26.5703 71.3203 26.3516C71.1849 26.1276 70.9844 25.9427 70.7188 25.7969C70.4583 25.651 70.138 25.5781 69.7578 25.5781C69.3568 25.5781 69.0312 25.6406 68.7812 25.7656C68.5365 25.8854 68.3568 26.0391 68.2422 26.2266C68.1328 26.4141 68.0781 26.612 68.0781 26.8203C68.0781 26.9766 68.1042 27.1172 68.1562 27.2422C68.2135 27.362 68.3125 27.474 68.4531 27.5781C68.5938 27.6771 68.7917 27.7708 69.0469 27.8594C69.3021 27.9479 69.6276 28.0365 70.0234 28.125C70.7161 28.2812 71.2865 28.4688 71.7344 28.6875C72.1823 28.9062 72.5156 29.1745 72.7344 29.4922C72.9531 29.8099 73.0625 30.1953 73.0625 30.6484C73.0625 31.0182 72.9844 31.3568 72.8281 31.6641C72.6771 31.9714 72.4557 32.237 72.1641 32.4609C71.8776 32.6797 71.5339 32.8516 71.1328 32.9766C70.737 33.0964 70.2917 33.1562 69.7969 33.1562C69.0521 33.1562 68.4219 33.0234 67.9062 32.7578C67.3906 32.4922 67 32.1484 66.7344 31.7266C66.4688 31.3047 66.3359 30.8594 66.3359 30.3906H67.7891C67.8099 30.7865 67.9245 31.1016 68.1328 31.3359C68.3411 31.5651 68.5964 31.7292 68.8984 31.8281C69.2005 31.9219 69.5 31.9688 69.7969 31.9688C70.1927 31.9688 70.5234 31.9167 70.7891 31.8125C71.0599 31.7083 71.2656 31.5651 71.4062 31.3828C71.5469 31.2005 71.6172 30.9922 71.6172 30.7578ZM78.8438 31.9688C79.1875 31.9688 79.5052 31.8984 79.7969 31.7578C80.0885 31.6172 80.3281 31.4245 80.5156 31.1797C80.7031 30.9297 80.8099 30.6458 80.8359 30.3281H82.2109C82.1849 30.8281 82.0156 31.2943 81.7031 31.7266C81.3958 32.1536 80.9922 32.5 80.4922 32.7656C79.9922 33.026 79.4427 33.1562 78.8438 33.1562C78.2083 33.1562 77.6536 33.0443 77.1797 32.8203C76.7109 32.5964 76.3203 32.2891 76.0078 31.8984C75.7005 31.5078 75.4688 31.0599 75.3125 30.5547C75.1615 30.0443 75.0859 29.5052 75.0859 28.9375V28.6094C75.0859 28.0417 75.1615 27.5052 75.3125 27C75.4688 26.4896 75.7005 26.0391 76.0078 25.6484C76.3203 25.2578 76.7109 24.9505 77.1797 24.7266C77.6536 24.5026 78.2083 24.3906 78.8438 24.3906C79.5052 24.3906 80.0833 24.526 80.5781 24.7969C81.0729 25.0625 81.4609 25.4271 81.7422 25.8906C82.0286 26.349 82.1849 26.8698 82.2109 27.4531H80.8359C80.8099 27.1042 80.7109 26.7891 80.5391 26.5078C80.3724 26.2266 80.1432 26.0026 79.8516 25.8359C79.5651 25.6641 79.2292 25.5781 78.8438 25.5781C78.401 25.5781 78.0286 25.6667 77.7266 25.8438C77.4297 26.0156 77.1927 26.25 77.0156 26.5469C76.8438 26.8385 76.7188 27.1641 76.6406 27.5234C76.5677 27.8776 76.5312 28.2396 76.5312 28.6094V28.9375C76.5312 29.3073 76.5677 29.6719 76.6406 30.0312C76.7135 30.3906 76.8359 30.7161 77.0078 31.0078C77.1849 31.2995 77.4219 31.5339 77.7188 31.7109C78.0208 31.8828 78.3958 31.9688 78.8438 31.9688ZM85.7812 25.875V33H84.3359V24.5469H85.7422L85.7812 25.875ZM88.4219 24.5L88.4141 25.8438C88.2943 25.8177 88.1797 25.8021 88.0703 25.7969C87.9661 25.7865 87.8464 25.7812 87.7109 25.7812C87.3776 25.7812 87.0833 25.8333 86.8281 25.9375C86.5729 26.0417 86.3568 26.1875 86.1797 26.375C86.0026 26.5625 85.862 26.7865 85.7578 27.0469C85.6589 27.3021 85.5938 27.5833 85.5625 27.8906L85.1562 28.125C85.1562 27.6146 85.2057 27.1354 85.3047 26.6875C85.4089 26.2396 85.5677 25.8438 85.7812 25.5C85.9948 25.151 86.2656 24.8802 86.5938 24.6875C86.9271 24.4896 87.3229 24.3906 87.7812 24.3906C87.8854 24.3906 88.0052 24.4036 88.1406 24.4297C88.276 24.4505 88.3698 24.474 88.4219 24.5ZM93.6094 33.1562C93.0208 33.1562 92.487 33.0573 92.0078 32.8594C91.5339 32.6562 91.125 32.3724 90.7812 32.0078C90.4427 31.6432 90.1823 31.2109 90 30.7109C89.8177 30.2109 89.7266 29.6641 89.7266 29.0703V28.7422C89.7266 28.0547 89.8281 27.4427 90.0312 26.9062C90.2344 26.3646 90.5104 25.9062 90.8594 25.5312C91.2083 25.1562 91.6042 24.8724 92.0469 24.6797C92.4896 24.487 92.9479 24.3906 93.4219 24.3906C94.026 24.3906 94.5469 24.4948 94.9844 24.7031C95.4271 24.9115 95.7891 25.2031 96.0703 25.5781C96.3516 25.9479 96.5599 26.3854 96.6953 26.8906C96.8307 27.3906 96.8984 27.9375 96.8984 28.5312V29.1797H90.5859V28H95.4531V27.8906C95.4323 27.5156 95.3542 27.151 95.2188 26.7969C95.0885 26.4427 94.8802 26.151 94.5938 25.9219C94.3073 25.6927 93.9167 25.5781 93.4219 25.5781C93.0938 25.5781 92.7917 25.6484 92.5156 25.7891C92.2396 25.9245 92.0026 26.1276 91.8047 26.3984C91.6068 26.6693 91.4531 27 91.3438 27.3906C91.2344 27.7812 91.1797 28.2318 91.1797 28.7422V29.0703C91.1797 29.4714 91.2344 29.849 91.3438 30.2031C91.4583 30.5521 91.6224 30.8594 91.8359 31.125C92.0547 31.3906 92.3177 31.599 92.625 31.75C92.9375 31.901 93.2917 31.9766 93.6875 31.9766C94.1979 31.9766 94.6302 31.8724 94.9844 31.6641C95.3385 31.4557 95.6484 31.1771 95.9141 30.8281L96.7891 31.5234C96.6068 31.7995 96.375 32.0625 96.0938 32.3125C95.8125 32.5625 95.4661 32.7656 95.0547 32.9219C94.6484 33.0781 94.1667 33.1562 93.6094 33.1562ZM101.547 31.6953L103.859 24.5469H105.336L102.297 33H101.328L101.547 31.6953ZM99.6172 24.5469L102 31.7344L102.164 33H101.195L98.1328 24.5469H99.6172ZM112.086 31.5547V27.2031C112.086 26.8698 112.018 26.5807 111.883 26.3359C111.753 26.0859 111.555 25.8932 111.289 25.7578C111.023 25.6224 110.695 25.5547 110.305 25.5547C109.94 25.5547 109.62 25.6172 109.344 25.7422C109.073 25.8672 108.859 26.0312 108.703 26.2344C108.552 26.4375 108.477 26.6562 108.477 26.8906H107.031C107.031 26.5885 107.109 26.2891 107.266 25.9922C107.422 25.6953 107.646 25.4271 107.938 25.1875C108.234 24.9427 108.589 24.75 109 24.6094C109.417 24.4635 109.88 24.3906 110.391 24.3906C111.005 24.3906 111.547 24.4948 112.016 24.7031C112.49 24.9115 112.859 25.2266 113.125 25.6484C113.396 26.0651 113.531 26.5885 113.531 27.2188V31.1562C113.531 31.4375 113.555 31.737 113.602 32.0547C113.654 32.3724 113.729 32.6458 113.828 32.875V33H112.32C112.247 32.8333 112.19 32.612 112.148 32.3359C112.107 32.0547 112.086 31.7943 112.086 31.5547ZM112.336 27.875L112.352 28.8906H110.891C110.479 28.8906 110.112 28.9245 109.789 28.9922C109.466 29.0547 109.195 29.151 108.977 29.2812C108.758 29.4115 108.591 29.5755 108.477 29.7734C108.362 29.9661 108.305 30.1927 108.305 30.4531C108.305 30.7188 108.365 30.9609 108.484 31.1797C108.604 31.3984 108.784 31.5729 109.023 31.7031C109.268 31.8281 109.568 31.8906 109.922 31.8906C110.365 31.8906 110.755 31.7969 111.094 31.6094C111.432 31.4219 111.701 31.1927 111.898 30.9219C112.102 30.651 112.211 30.388 112.227 30.1328L112.844 30.8281C112.807 31.0469 112.708 31.2891 112.547 31.5547C112.385 31.8203 112.169 32.0755 111.898 32.3203C111.633 32.5599 111.315 32.7604 110.945 32.9219C110.581 33.0781 110.169 33.1562 109.711 33.1562C109.138 33.1562 108.635 33.0443 108.203 32.8203C107.776 32.5964 107.443 32.2969 107.203 31.9219C106.969 31.5417 106.852 31.1172 106.852 30.6484C106.852 30.1953 106.94 29.7969 107.117 29.4531C107.294 29.1042 107.549 28.8151 107.883 28.5859C108.216 28.3516 108.617 28.1745 109.086 28.0547C109.555 27.9349 110.078 27.875 110.656 27.875H112.336ZM125.695 30.7578C125.695 30.5495 125.648 30.3568 125.555 30.1797C125.466 29.9974 125.281 29.8333 125 29.6875C124.724 29.5365 124.307 29.4062 123.75 29.2969C123.281 29.1979 122.857 29.0807 122.477 28.9453C122.102 28.8099 121.781 28.6458 121.516 28.4531C121.255 28.2604 121.055 28.0339 120.914 27.7734C120.773 27.513 120.703 27.2083 120.703 26.8594C120.703 26.526 120.776 26.2109 120.922 25.9141C121.073 25.6172 121.284 25.3542 121.555 25.125C121.831 24.8958 122.161 24.7161 122.547 24.5859C122.932 24.4557 123.362 24.3906 123.836 24.3906C124.513 24.3906 125.091 24.5104 125.57 24.75C126.049 24.9896 126.417 25.3099 126.672 25.7109C126.927 26.1068 127.055 26.5469 127.055 27.0312H125.609C125.609 26.7969 125.539 26.5703 125.398 26.3516C125.263 26.1276 125.062 25.9427 124.797 25.7969C124.536 25.651 124.216 25.5781 123.836 25.5781C123.435 25.5781 123.109 25.6406 122.859 25.7656C122.615 25.8854 122.435 26.0391 122.32 26.2266C122.211 26.4141 122.156 26.612 122.156 26.8203C122.156 26.9766 122.182 27.1172 122.234 27.2422C122.292 27.362 122.391 27.474 122.531 27.5781C122.672 27.6771 122.87 27.7708 123.125 27.8594C123.38 27.9479 123.706 28.0365 124.102 28.125C124.794 28.2812 125.365 28.4688 125.812 28.6875C126.26 28.9062 126.594 29.1745 126.812 29.4922C127.031 29.8099 127.141 30.1953 127.141 30.6484C127.141 31.0182 127.062 31.3568 126.906 31.6641C126.755 31.9714 126.534 32.237 126.242 32.4609C125.956 32.6797 125.612 32.8516 125.211 32.9766C124.815 33.0964 124.37 33.1562 123.875 33.1562C123.13 33.1562 122.5 33.0234 121.984 32.7578C121.469 32.4922 121.078 32.1484 120.812 31.7266C120.547 31.3047 120.414 30.8594 120.414 30.3906H121.867C121.888 30.7865 122.003 31.1016 122.211 31.3359C122.419 31.5651 122.674 31.7292 122.977 31.8281C123.279 31.9219 123.578 31.9688 123.875 31.9688C124.271 31.9688 124.602 31.9167 124.867 31.8125C125.138 31.7083 125.344 31.5651 125.484 31.3828C125.625 31.2005 125.695 30.9922 125.695 30.7578ZM133.047 33.1562C132.458 33.1562 131.924 33.0573 131.445 32.8594C130.971 32.6562 130.562 32.3724 130.219 32.0078C129.88 31.6432 129.62 31.2109 129.438 30.7109C129.255 30.2109 129.164 29.6641 129.164 29.0703V28.7422C129.164 28.0547 129.266 27.4427 129.469 26.9062C129.672 26.3646 129.948 25.9062 130.297 25.5312C130.646 25.1562 131.042 24.8724 131.484 24.6797C131.927 24.487 132.385 24.3906 132.859 24.3906C133.464 24.3906 133.984 24.4948 134.422 24.7031C134.865 24.9115 135.227 25.2031 135.508 25.5781C135.789 25.9479 135.997 26.3854 136.133 26.8906C136.268 27.3906 136.336 27.9375 136.336 28.5312V29.1797H130.023V28H134.891V27.8906C134.87 27.5156 134.792 27.151 134.656 26.7969C134.526 26.4427 134.318 26.151 134.031 25.9219C133.745 25.6927 133.354 25.5781 132.859 25.5781C132.531 25.5781 132.229 25.6484 131.953 25.7891C131.677 25.9245 131.44 26.1276 131.242 26.3984C131.044 26.6693 130.891 27 130.781 27.3906C130.672 27.7812 130.617 28.2318 130.617 28.7422V29.0703C130.617 29.4714 130.672 29.849 130.781 30.2031C130.896 30.5521 131.06 30.8594 131.273 31.125C131.492 31.3906 131.755 31.599 132.062 31.75C132.375 31.901 132.729 31.9766 133.125 31.9766C133.635 31.9766 134.068 31.8724 134.422 31.6641C134.776 31.4557 135.086 31.1771 135.352 30.8281L136.227 31.5234C136.044 31.7995 135.812 32.0625 135.531 32.3125C135.25 32.5625 134.904 32.7656 134.492 32.9219C134.086 33.0781 133.604 33.1562 133.047 33.1562ZM143.695 31.0469V24.5469H145.148V33H143.766L143.695 31.0469ZM143.969 29.2656L144.57 29.25C144.57 29.8125 144.51 30.3333 144.391 30.8125C144.276 31.2865 144.089 31.6979 143.828 32.0469C143.568 32.3958 143.227 32.6693 142.805 32.8672C142.383 33.0599 141.87 33.1562 141.266 33.1562C140.854 33.1562 140.477 33.0964 140.133 32.9766C139.794 32.8568 139.503 32.6719 139.258 32.4219C139.013 32.1719 138.823 31.8464 138.688 31.4453C138.557 31.0443 138.492 30.5625 138.492 30V24.5469H139.938V30.0156C139.938 30.3958 139.979 30.7109 140.062 30.9609C140.151 31.2057 140.268 31.401 140.414 31.5469C140.565 31.6875 140.732 31.7865 140.914 31.8438C141.102 31.901 141.294 31.9297 141.492 31.9297C142.107 31.9297 142.594 31.8125 142.953 31.5781C143.312 31.3385 143.57 31.0182 143.727 30.6172C143.888 30.2109 143.969 29.7604 143.969 29.2656ZM155.859 24.5469V25.6562H151.289V24.5469H155.859ZM152.836 22.4922H154.281V30.9062C154.281 31.1927 154.326 31.4089 154.414 31.5547C154.503 31.7005 154.617 31.7969 154.758 31.8438C154.898 31.8906 155.049 31.9141 155.211 31.9141C155.331 31.9141 155.456 31.9036 155.586 31.8828C155.721 31.8568 155.823 31.8359 155.891 31.8203L155.898 33C155.784 33.0365 155.633 33.0703 155.445 33.1016C155.263 33.138 155.042 33.1562 154.781 33.1562C154.427 33.1562 154.102 33.0859 153.805 32.9453C153.508 32.8047 153.271 32.5703 153.094 32.2422C152.922 31.9089 152.836 31.4609 152.836 30.8984V22.4922ZM159.617 24.5469V33H158.172V24.5469H159.617ZM158.125 23.3125L159.641 21.0156H161.383L159.289 23.3125H158.125ZM166.062 24.5469V25.6562H161.492V24.5469H166.062ZM163.039 22.4922H164.484V30.9062C164.484 31.1927 164.529 31.4089 164.617 31.5547C164.706 31.7005 164.82 31.7969 164.961 31.8438C165.102 31.8906 165.253 31.9141 165.414 31.9141C165.534 31.9141 165.659 31.9036 165.789 31.8828C165.924 31.8568 166.026 31.8359 166.094 31.8203L166.102 33C165.987 33.0365 165.836 33.0703 165.648 33.1016C165.466 33.138 165.245 33.1562 164.984 33.1562C164.63 33.1562 164.305 33.0859 164.008 32.9453C163.711 32.8047 163.474 32.5703 163.297 32.2422C163.125 31.9089 163.039 31.4609 163.039 30.8984V22.4922ZM173.43 31.0469V24.5469H174.883V33H173.5L173.43 31.0469ZM173.703 29.2656L174.305 29.25C174.305 29.8125 174.245 30.3333 174.125 30.8125C174.01 31.2865 173.823 31.6979 173.562 32.0469C173.302 32.3958 172.961 32.6693 172.539 32.8672C172.117 33.0599 171.604 33.1562 171 33.1562C170.589 33.1562 170.211 33.0964 169.867 32.9766C169.529 32.8568 169.237 32.6719 168.992 32.4219C168.747 32.1719 168.557 31.8464 168.422 31.4453C168.292 31.0443 168.227 30.5625 168.227 30V24.5469H169.672V30.0156C169.672 30.3958 169.714 30.7109 169.797 30.9609C169.885 31.2057 170.003 31.401 170.148 31.5469C170.299 31.6875 170.466 31.7865 170.648 31.8438C170.836 31.901 171.029 31.9297 171.227 31.9297C171.841 31.9297 172.328 31.8125 172.688 31.5781C173.047 31.3385 173.305 31.0182 173.461 30.6172C173.622 30.2109 173.703 29.7604 173.703 29.2656ZM180.969 31.9688C181.312 31.9688 181.63 31.8984 181.922 31.7578C182.214 31.6172 182.453 31.4245 182.641 31.1797C182.828 30.9297 182.935 30.6458 182.961 30.3281H184.336C184.31 30.8281 184.141 31.2943 183.828 31.7266C183.521 32.1536 183.117 32.5 182.617 32.7656C182.117 33.026 181.568 33.1562 180.969 33.1562C180.333 33.1562 179.779 33.0443 179.305 32.8203C178.836 32.5964 178.445 32.2891 178.133 31.8984C177.826 31.5078 177.594 31.0599 177.438 30.5547C177.286 30.0443 177.211 29.5052 177.211 28.9375V28.6094C177.211 28.0417 177.286 27.5052 177.438 27C177.594 26.4896 177.826 26.0391 178.133 25.6484C178.445 25.2578 178.836 24.9505 179.305 24.7266C179.779 24.5026 180.333 24.3906 180.969 24.3906C181.63 24.3906 182.208 24.526 182.703 24.7969C183.198 25.0625 183.586 25.4271 183.867 25.8906C184.154 26.349 184.31 26.8698 184.336 27.4531H182.961C182.935 27.1042 182.836 26.7891 182.664 26.5078C182.497 26.2266 182.268 26.0026 181.977 25.8359C181.69 25.6641 181.354 25.5781 180.969 25.5781C180.526 25.5781 180.154 25.6667 179.852 25.8438C179.555 26.0156 179.318 26.25 179.141 26.5469C178.969 26.8385 178.844 27.1641 178.766 27.5234C178.693 27.8776 178.656 28.2396 178.656 28.6094V28.9375C178.656 29.3073 178.693 29.6719 178.766 30.0312C178.839 30.3906 178.961 30.7161 179.133 31.0078C179.31 31.2995 179.547 31.5339 179.844 31.7109C180.146 31.8828 180.521 31.9688 180.969 31.9688ZM188.031 21V33H186.578V21H188.031ZM190.469 28.8672V28.6875C190.469 28.0781 190.557 27.513 190.734 26.9922C190.911 26.4661 191.167 26.0104 191.5 25.625C191.833 25.2344 192.237 24.9323 192.711 24.7188C193.185 24.5 193.716 24.3906 194.305 24.3906C194.898 24.3906 195.432 24.5 195.906 24.7188C196.385 24.9323 196.792 25.2344 197.125 25.625C197.464 26.0104 197.721 26.4661 197.898 26.9922C198.076 27.513 198.164 28.0781 198.164 28.6875V28.8672C198.164 29.4766 198.076 30.0417 197.898 30.5625C197.721 31.0833 197.464 31.5391 197.125 31.9297C196.792 32.3151 196.388 32.6172 195.914 32.8359C195.445 33.0495 194.914 33.1562 194.32 33.1562C193.727 33.1562 193.193 33.0495 192.719 32.8359C192.245 32.6172 191.839 32.3151 191.5 31.9297C191.167 31.5391 190.911 31.0833 190.734 30.5625C190.557 30.0417 190.469 29.4766 190.469 28.8672ZM191.914 28.6875V28.8672C191.914 29.2891 191.964 29.6875 192.062 30.0625C192.161 30.4323 192.31 30.7604 192.508 31.0469C192.711 31.3333 192.964 31.5599 193.266 31.7266C193.568 31.888 193.919 31.9688 194.32 31.9688C194.716 31.9688 195.062 31.888 195.359 31.7266C195.661 31.5599 195.911 31.3333 196.109 31.0469C196.307 30.7604 196.456 30.4323 196.555 30.0625C196.659 29.6875 196.711 29.2891 196.711 28.8672V28.6875C196.711 28.2708 196.659 27.8776 196.555 27.5078C196.456 27.1328 196.305 26.8021 196.102 26.5156C195.904 26.224 195.654 25.9948 195.352 25.8281C195.055 25.6615 194.706 25.5781 194.305 25.5781C193.909 25.5781 193.56 25.6615 193.258 25.8281C192.961 25.9948 192.711 26.224 192.508 26.5156C192.31 26.8021 192.161 27.1328 192.062 27.5078C191.964 27.8776 191.914 28.2708 191.914 28.6875Z" fill="#1D1B20"/>
<path d="M201 20V36" stroke="#6750A4" stroke-linecap="square"/>
<g clip-path="url(#clip3_1323_631)">
<path d="M678.4 35L677 33.6L682.6 28L677 22.4L678.4 21L684 26.6L689.6 21L691 22.4L685.4 28L691 33.6L689.6 35L684 29.4L678.4 35Z" fill="#49454F"/>
</g>
<line y1="56.5" x2="712" y2="56.5" stroke="#79747E"/>
<defs>
<clipPath id="clip0_1323_631">
<rect x="8" y="159" width="40" height="40" rx="20" fill="white"/>
</clipPath>
<clipPath id="clip1_1323_631">
<rect x="672" y="159" width="40" height="40" rx="20" fill="white"/>
</clipPath>
<clipPath id="clip2_1323_631">
<rect x="8" y="8" width="40" height="40" rx="20" fill="white"/>
</clipPath>
<clipPath id="clip3_1323_631">
<rect x="664" y="8" width="40" height="40" rx="20" fill="white"/>
</clipPath>
</defs>
</svg>
