<svg width="65" height="56" viewBox="0 0 65 56" fill="none" xmlns="http://www.w3.org/2000/svg">
<path d="M65 38C65 47.9411 56.9411 56 47 56L20 56C17.2386 56 15 53.7614 15 51L15 17C15 11.4772 19.4772 7 25 7L60 7C62.7614 7 65 9.23858 65 12L65 38Z" fill="#FFCC9B"/>
<path d="M43.3114 30.6447C43.0706 30.6447 42.847 30.5785 42.6484 30.472V30.4748C42.6484 30.8537 42.5012 31.2094 42.234 31.4759C41.9669 31.7431 41.6114 31.8903 41.233 31.8903C40.9886 31.8903 40.7622 31.8225 40.5615 31.7131C40.5412 32.0597 40.4027 32.3837 40.1556 32.6311C39.8884 32.8982 39.5329 33.0455 39.1542 33.0455C38.4019 33.0455 37.791 32.4541 37.747 31.7129C37.5142 31.8387 37.2511 31.9047 36.9796 31.8873C36.2396 31.8387 35.6601 31.1993 35.6601 30.4312V24.0646L34.9351 25.3206C34.659 25.8009 34.1421 26.0992 33.5856 26.0992C33.3144 26.0992 33.0465 26.028 32.8093 25.8921C32.5139 25.7208 32.3025 25.4459 32.2146 25.117C32.1263 24.7878 32.172 24.4436 32.3428 24.1486C32.343 24.1486 34.7148 20.0414 34.8595 19.7891C34.8767 19.7512 34.9257 19.6412 34.9674 19.5474C35.0072 19.4579 35.0414 19.366 35.0741 19.2737C35.7894 17.2544 37.5604 16 39.6963 16C42.47 16 44.7266 18.4469 44.7266 21.4546L44.7268 29.229C44.7268 29.6074 44.5798 29.9629 44.3129 30.2303C44.0457 30.4975 43.6902 30.6447 43.3114 30.6447L43.3114 30.6447ZM39.6964 16.7522C37.861 16.7522 36.3982 17.7888 35.7831 19.5252C35.7437 19.6355 35.7027 19.7457 35.6549 19.8532C35.5161 20.1644 35.5161 20.1644 35.477 20.2091L35.4718 20.2047C35.2782 20.5701 34.7029 21.5664 32.9941 24.5251C32.9239 24.6464 32.9052 24.7873 32.9411 24.922C32.9773 25.0568 33.0643 25.1704 33.1847 25.2399C33.5583 25.4545 34.0701 25.316 34.283 24.9449L35.7105 22.4734C35.7958 22.3262 35.9683 22.2539 36.1337 22.2986C36.2981 22.3427 36.4124 22.4918 36.4124 22.6619V30.4315C36.4124 30.798 36.689 31.1144 37.0289 31.1368C37.225 31.1472 37.4078 31.0815 37.5451 30.9443C37.67 30.8195 37.7388 30.6531 37.7388 30.4753V25.3939C37.7388 25.1861 37.9073 25.0176 38.115 25.0176C38.3228 25.0176 38.4913 25.1859 38.4913 25.3939L38.4911 31.6303C38.4911 31.9959 38.7886 32.2935 39.1543 32.2935C39.3319 32.2935 39.4987 32.2247 39.6238 32.0998C39.7487 31.9747 39.8175 31.8079 39.8175 31.6303V25.3939C39.8175 25.1861 39.9857 25.0176 40.1937 25.0176C40.4015 25.0176 40.57 25.1858 40.57 25.3939L40.5697 30.4168V30.4752C40.5697 30.8407 40.8673 31.1382 41.2332 31.1382C41.4106 31.1382 41.5769 31.0692 41.7027 30.9438C41.8276 30.8192 41.8964 30.6529 41.8964 30.475V25.3936C41.8964 25.1858 42.0646 25.0174 42.2726 25.0174C42.4804 25.0174 42.6489 25.1856 42.6489 25.3936L42.6484 29.2292C42.6484 29.595 42.946 29.8926 43.3114 29.8926C43.4893 29.8926 43.6556 29.8236 43.7805 29.699C43.9058 29.5736 43.9744 29.4068 43.9744 29.2292L43.9746 21.4548C43.9746 18.8621 42.0554 16.7523 39.6963 16.7523L39.6964 16.7522Z" fill="#168AC3"/>
<path d="M28.529 36.0481L33.9887 32.7728C34.647 32.3775 35.4939 32.5455 35.9161 33.1554C36.0702 33.3776 36.1489 33.6365 36.1611 33.9002C36.3647 33.7939 36.5862 33.7362 36.8116 33.7362C36.9271 33.7362 37.043 33.7506 37.1575 33.7791C37.5243 33.8707 37.8334 34.0999 38.0278 34.4241C38.2224 34.7488 38.2792 35.1292 38.1875 35.4956C38.103 35.8347 37.8968 36.12 37.6101 36.3158C37.8106 36.434 37.9835 36.5954 38.1065 36.8009C38.3011 37.1255 38.3579 37.5058 38.2665 37.8726C38.1748 38.239 37.9456 38.5481 37.6209 38.7429L37.619 38.7441C37.816 38.8622 37.9859 39.0219 38.1074 39.2243C38.3023 39.5489 38.3591 39.9294 38.2674 40.2962C38.1755 40.6628 37.9463 40.9719 37.6221 41.1665L30.9557 45.1658C29.7115 45.912 28.2732 46.1695 26.9062 45.8903C25.5271 45.6085 24.3848 44.8158 23.6903 43.658C22.5913 41.8262 22.756 39.662 24.1194 38.0102C24.1818 37.9348 24.2433 37.858 24.2991 37.7784C24.3583 37.6943 24.4273 37.5953 24.4509 37.5614C24.592 37.3093 26.8947 33.1604 26.8945 33.1609C27.127 32.7413 27.5629 32.5038 28.0124 32.504C28.2221 32.504 28.4348 32.5556 28.6311 32.6645C28.8681 32.7969 29.0672 32.9898 29.2064 33.2224C29.4927 33.6995 29.5028 34.2965 29.2333 34.7797L28.529 36.0481ZM28.5617 33.6092C28.4887 33.4874 28.3883 33.3903 28.2656 33.3215C28.0118 33.1811 27.6924 33.2725 27.5527 33.5253C25.9049 36.4938 25.3432 37.5055 25.1265 37.8655L25.1314 37.8667C25.1133 37.927 25.1133 37.927 24.9149 38.2104C24.8475 38.3063 24.7742 38.3984 24.6996 38.4891C23.5272 39.9095 23.3911 41.697 24.3351 43.271C24.9198 44.2459 25.8863 44.9143 27.0565 45.1532C28.2394 45.3938 29.4862 45.1699 30.5683 44.5207L37.2353 40.5212C37.3875 40.43 37.495 40.2851 37.5378 40.1134C37.5807 39.9418 37.5541 39.7635 37.4627 39.6113C37.2747 39.298 36.8664 39.195 36.553 39.3837L33.2641 41.3569C33.086 41.4638 32.8546 41.4063 32.7479 41.228C32.641 41.0499 32.6987 40.8187 32.8768 40.7118L36.166 38.7386L37.2342 38.0978C37.3864 38.0064 37.494 37.8615 37.5369 37.6902C37.5798 37.5185 37.5532 37.3399 37.4617 37.1879C37.2735 36.8744 36.8652 36.7723 36.5521 36.9604L32.1947 39.5743C32.0161 39.6815 31.7855 39.6236 31.6785 39.4455C31.5716 39.2673 31.6295 39.0362 31.8074 38.9293L37.1552 35.7211C37.3074 35.6297 37.4149 35.4851 37.4577 35.3133C37.5006 35.1418 37.474 34.9635 37.3828 34.8113C37.2916 34.6593 37.1468 34.5519 36.975 34.509C36.8023 34.4661 36.6247 34.4927 36.4729 34.5837L35.483 35.1776C35.4827 35.1776 35.4827 35.1779 35.4825 35.1779H35.4823L31.1251 37.7918C30.9465 37.8993 30.7157 37.8413 30.6089 37.663C30.502 37.4849 30.5599 37.2537 30.7378 37.1468L35.0952 34.5328C35.2474 34.4414 35.355 34.2965 35.3979 34.1252C35.445 33.9372 35.4092 33.745 35.2976 33.5838C35.1039 33.3037 34.6897 33.2292 34.3757 33.4179L27.7135 37.4147C27.5677 37.5018 27.3808 37.4806 27.2585 37.3626C27.136 37.2443 27.1085 37.0584 27.1909 36.9098L28.5763 34.4138C28.7153 34.1643 28.7098 33.8562 28.5617 33.6093L28.5617 33.6092Z" fill="#168AC3"/>
<path d="M54.6181 43.6577C53.9238 44.8157 52.7819 45.6083 51.4025 45.8901C50.0353 46.1688 48.5974 45.9117 47.353 45.1656L40.686 41.1661C40.3616 40.9715 40.1321 40.6624 40.0402 40.2953C39.949 39.9289 40.006 39.5484 40.2004 39.2243C40.3217 39.0216 40.4918 38.8619 40.689 38.7439L40.6871 38.7427C40.3627 38.5481 40.1333 38.239 40.0419 37.8724C39.95 37.5058 40.007 37.125 40.2016 36.8004C40.3269 36.5919 40.4987 36.4289 40.6947 36.3132C40.4101 36.1174 40.2051 35.8331 40.1208 35.4957C40.0289 35.1288 40.0859 34.7483 40.2805 34.4242C40.4749 34.0997 40.7842 33.8705 41.1508 33.7789C41.2653 33.7501 41.3815 33.736 41.4965 33.736C41.7222 33.7362 41.9436 33.7935 42.1472 33.9C42.1597 33.6363 42.2381 33.3774 42.3922 33.1552C42.8146 32.5458 43.6609 32.3771 44.3201 32.7726L49.7796 36.0474L49.0759 34.7799C48.8059 34.296 48.8158 33.699 49.1021 33.2216C49.2415 32.9893 49.4408 32.7964 49.679 32.6628C49.8748 32.5544 50.0869 32.5031 50.296 32.5031C50.7453 32.5033 51.1817 32.7403 51.4139 33.1599C52.2235 34.6185 53.7511 37.3694 53.8585 37.5614C53.8813 37.5946 53.9504 37.6936 54.0095 37.7777C54.0658 37.8575 54.1266 37.9339 54.1895 38.0097C55.5527 39.6622 55.7171 41.8262 54.6181 43.6578L54.6181 43.6577ZM53.6091 38.4892C53.5341 38.3985 53.4606 38.3059 53.3937 38.2105C53.1902 37.9217 53.185 37.9141 53.1697 37.8385C52.9317 37.4448 52.3512 36.3997 50.7555 33.5249C50.6156 33.2726 50.2975 33.1805 50.0443 33.3204C49.9196 33.3901 49.8195 33.4874 49.7465 33.6093C49.5985 33.8559 49.5928 34.1641 49.7326 34.4143L51.1174 36.9095C51.2001 37.0584 51.1725 37.2441 51.0503 37.3623C50.9282 37.4808 50.7416 37.5016 50.5951 37.4144L43.9329 33.4177C43.6189 33.2295 43.2049 33.3032 43.0108 33.5836C42.8991 33.7447 42.8635 33.937 42.9102 34.1247C42.9531 34.2963 43.0607 34.4409 43.2132 34.5323C43.2136 34.5326 43.2139 34.533 43.2143 34.5333L47.5703 37.1465C47.7484 37.2535 47.8062 37.4844 47.6992 37.6627C47.5922 37.8406 47.3616 37.8988 47.183 37.7916L41.8352 34.5835C41.6834 34.4925 41.5048 34.4657 41.3333 34.5088C41.1613 34.5517 41.0167 34.6591 40.9255 34.8115C40.8341 34.9635 40.8077 35.1418 40.8501 35.3133C40.893 35.4849 41.0007 35.6297 41.1529 35.7212L42.1935 36.3453L46.5005 38.9293C46.6786 39.0363 46.7363 39.2672 46.6293 39.4455C46.5224 39.6234 46.2917 39.6814 46.1131 39.5744L41.7562 36.9604C41.4429 36.7719 41.0348 36.8742 40.8464 37.188C40.755 37.3402 40.7286 37.5186 40.771 37.6901C40.8139 37.8616 40.9215 38.0062 41.0739 38.0979L42.1422 38.7387L45.4308 40.7119C45.609 40.8188 45.6667 41.0497 45.5597 41.2281C45.4528 41.4059 45.2221 41.4644 45.0435 41.3569L41.7548 39.3838C41.6031 39.2928 41.4252 39.266 41.2528 39.3091C41.0813 39.352 40.9361 39.4594 40.845 39.6114C40.7538 39.7636 40.7272 39.9421 40.7696 40.1134C40.8124 40.2849 40.9201 40.4296 41.0725 40.5212L47.7395 44.5207C48.8214 45.1698 50.0691 45.3945 51.2514 45.1533C52.4213 44.9144 53.3878 44.246 53.9725 43.2711C54.9175 41.6968 54.7816 39.9091 53.6095 38.4892L53.6091 38.4892Z" fill="#168AC3"/>
</svg>
