<svg width="76" height="47" viewBox="0 0 76 47" fill="none" xmlns="http://www.w3.org/2000/svg">
<path d="M72.2549 8.655C71.8689 7.34988 71.0826 6.15407 69.9755 5.18837C68.8685 4.22266 67.4799 3.52126 65.9499 3.155C60.3599 2 37.9999 2 37.9999 2C37.9999 2 15.6399 2 10.0499 3.265C8.51996 3.63126 7.13133 4.33266 6.02428 5.29837C4.91723 6.26407 4.13097 7.45988 3.7449 8.765C2.72185 13.5653 2.22142 18.4349 2.2499 23.3125C2.21344 28.2269 2.7139 33.1336 3.7449 37.97C4.17052 39.2346 4.9744 40.3849 6.07887 41.3098C7.18334 42.2347 8.55107 42.903 10.0499 43.25C15.6399 44.515 37.9999 44.515 37.9999 44.515C37.9999 44.515 60.3599 44.515 65.9499 43.25C67.4799 42.8837 68.8685 42.1823 69.9755 41.2166C71.0826 40.2509 71.8689 39.0551 72.2549 37.75C73.2701 32.9859 73.7705 28.1534 73.7499 23.3125C73.7864 18.3981 73.2859 13.4914 72.2549 8.655Z" stroke="#2194F3" stroke-width="4" stroke-linecap="round" stroke-linejoin="round"/>
<path d="M30.6874 32.305L49.3749 23.3125L30.6874 14.32V32.305Z" stroke="#2194F3" stroke-width="4" stroke-linecap="round" stroke-linejoin="round"/>
</svg>
