<svg width="66" height="56" viewBox="0 0 66 56" fill="none" xmlns="http://www.w3.org/2000/svg">
<path d="M65.5 38C65.5 47.9411 57.4411 56 47.5 56L20.5 56C17.7386 56 15.5 53.7614 15.5 51L15.5 17C15.5 11.4772 19.9772 7 25.5 7L60.5 7C63.2614 7 65.5 9.23858 65.5 12L65.5 38Z" fill="#FFCC9B"/>
<path d="M43.3117 30.6446C43.0709 30.6446 42.8473 30.5784 42.6487 30.4719V30.4748C42.6487 30.8536 42.5014 31.2094 42.2343 31.4758C41.9671 31.743 41.6116 31.8903 41.2332 31.8903C40.9889 31.8903 40.7625 31.8224 40.5617 31.7131C40.5415 32.0597 40.4029 32.3836 40.1558 32.631C39.8886 32.8982 39.5331 33.0454 39.1545 33.0454C38.4022 33.0454 37.7913 32.4541 37.7473 31.7129C37.5145 31.8387 37.2513 31.9046 36.9799 31.8872C36.2398 31.8387 35.6603 31.1993 35.6603 30.4312V24.0645L34.9353 25.3205C34.6592 25.8009 34.1423 26.0991 33.5858 26.0991C33.3147 26.0991 33.0468 26.028 32.8095 25.892C32.5141 25.7208 32.3028 25.4458 32.2149 25.1169C32.1265 24.7878 32.1722 24.4436 32.3431 24.1486C32.3433 24.1486 34.715 20.0414 34.8597 19.7891C34.8769 19.7512 34.9259 19.6411 34.9676 19.5474C35.0075 19.4578 35.0416 19.366 35.0744 19.2736C35.7896 17.2543 37.5607 16 39.6966 16C42.4703 16 44.7268 18.4469 44.7268 21.4546L44.727 29.2289C44.727 29.6073 44.58 29.9628 44.3131 30.2302C44.0459 30.4974 43.6904 30.6447 43.3116 30.6447L43.3117 30.6446ZM39.6966 16.7521C37.8613 16.7521 36.3984 17.7888 35.7833 19.5251C35.744 19.6354 35.703 19.7457 35.6552 19.8531C35.5164 20.1643 35.5164 20.1643 35.4773 20.2091L35.4721 20.2046C35.2784 20.57 34.7031 21.5663 32.9943 24.525C32.9241 24.6463 32.9055 24.7872 32.9413 24.922C32.9776 25.0567 33.0645 25.1703 33.1849 25.2398C33.5586 25.4544 34.0703 25.3159 34.2833 24.9448L35.7108 22.4734C35.7961 22.3261 35.9685 22.2538 36.1339 22.2986C36.2983 22.3426 36.4126 22.4918 36.4126 22.6619V30.4314C36.4126 30.798 36.6892 31.1144 37.0292 31.1368C37.2252 31.1471 37.408 31.0814 37.5454 30.9443C37.6702 30.8194 37.739 30.6531 37.739 30.4752V25.3938C37.739 25.186 37.9075 25.0176 38.1153 25.0176C38.3231 25.0176 38.4915 25.1858 38.4915 25.3938L38.4913 31.6302C38.4913 31.9958 38.7889 32.2934 39.1545 32.2934C39.3321 32.2934 39.499 32.2246 39.6241 32.0997C39.7489 31.9746 39.8177 31.8078 39.8177 31.6302V25.3938C39.8177 25.186 39.9859 25.0176 40.194 25.0176C40.4018 25.0176 40.5702 25.1858 40.5702 25.3938L40.57 30.4168V30.4752C40.57 30.8406 40.8675 31.1381 41.2334 31.1381C41.4108 31.1381 41.5772 31.0691 41.703 30.9438C41.8278 30.8191 41.8966 30.6528 41.8966 30.4749V25.3936C41.8966 25.1858 42.0649 25.0173 42.2729 25.0173C42.4807 25.0173 42.6491 25.1855 42.6491 25.3936L42.6487 29.2291C42.6487 29.595 42.9462 29.8925 43.3116 29.8925C43.4895 29.8925 43.6558 29.8235 43.7807 29.6989C43.906 29.5736 43.9746 29.4067 43.9746 29.2291L43.9748 21.4548C43.9748 18.862 42.0557 16.7522 39.6966 16.7522L39.6966 16.7521Z" fill="#168AC3"/>
<path d="M28.5291 36.048L33.9888 32.7727C34.6471 32.3774 35.4941 32.5454 35.9162 33.1553C36.0703 33.3775 36.149 33.6364 36.1613 33.9001C36.3648 33.7938 36.5863 33.7361 36.8117 33.7361C36.9272 33.7361 37.0431 33.7505 37.1576 33.779C37.5244 33.8706 37.8335 34.0999 38.0279 34.424C38.2225 34.7487 38.2793 35.1291 38.1877 35.4955C38.1031 35.8346 37.8969 36.1199 37.6102 36.3157C37.8107 36.4339 37.9836 36.5953 38.1066 36.8008C38.3012 37.1254 38.358 37.5057 38.2666 37.8725C38.1749 38.2389 37.9457 38.548 37.621 38.7429L37.6192 38.744C37.8161 38.8621 37.986 39.0218 38.1076 39.2242C38.3024 39.5488 38.3592 39.9293 38.2675 40.2961C38.1756 40.6627 37.9464 40.9718 37.6222 41.1664L30.9558 45.1657C29.7116 45.9119 28.2733 46.1694 26.9064 45.8902C25.5272 45.6084 24.385 44.8157 23.6905 43.6579C22.5914 41.8261 22.7561 39.6619 24.1195 38.0101C24.1819 37.9347 24.2434 37.8579 24.2993 37.7783C24.3584 37.6942 24.4274 37.5952 24.451 37.5613C24.5921 37.3092 26.8949 33.1603 26.8946 33.1608C27.1272 32.7412 27.563 32.5037 28.0125 32.5039C28.2222 32.5039 28.4349 32.5555 28.6312 32.6644C28.8682 32.7968 29.0673 32.9898 29.2065 33.2223C29.4928 33.6994 29.5029 34.2964 29.2334 34.7796L28.5291 36.048ZM28.5618 33.6091C28.4888 33.4873 28.3884 33.3902 28.2657 33.3214C28.012 33.181 27.6925 33.2724 27.5528 33.5252C25.905 36.4937 25.3434 37.5054 25.1266 37.8654L25.1315 37.8666C25.1134 37.9269 25.1134 37.9269 24.915 38.2103C24.8476 38.3062 24.7744 38.3983 24.6997 38.489C23.5273 39.9094 23.3912 41.6969 24.3352 43.2709C24.92 44.2458 25.8864 44.9142 27.0566 45.1531C28.2395 45.3937 29.4863 45.1699 30.5684 44.5206L37.2355 40.5211C37.3876 40.4299 37.4951 40.285 37.538 40.1133C37.5808 39.9417 37.5542 39.7634 37.4628 39.6112C37.2748 39.2979 36.8665 39.1949 36.5532 39.3836L33.2642 41.3568C33.0861 41.4637 32.8548 41.4062 32.748 41.2279C32.6411 41.0498 32.6988 40.8187 32.8769 40.7117L36.1661 38.7386L37.2343 38.0977C37.3865 38.0063 37.4941 37.8614 37.537 37.6901C37.5799 37.5184 37.5533 37.3398 37.4619 37.1878C37.2736 36.8743 36.8653 36.7723 36.5522 36.9603L32.1948 39.5742C32.0163 39.6814 31.7856 39.6235 31.6787 39.4454C31.5717 39.2673 31.6296 39.0361 31.8075 38.9292L37.1554 35.7211C37.3076 35.6296 37.415 35.485 37.4579 35.3132C37.5007 35.1417 37.4741 34.9634 37.3829 34.8112C37.2918 34.6592 37.1469 34.5518 36.9751 34.5089C36.8024 34.466 36.6248 34.4927 36.4731 34.5836L35.4831 35.1775C35.4829 35.1775 35.4829 35.1778 35.4826 35.1778H35.4824L31.1252 37.7917C30.9467 37.8992 30.7158 37.8412 30.6091 37.6629C30.5021 37.4848 30.5601 37.2536 30.7379 37.1467L35.0953 34.5327C35.2475 34.4413 35.3552 34.2964 35.398 34.1251C35.4452 33.9371 35.4094 33.7449 35.2977 33.5837C35.104 33.3036 34.6898 33.2291 34.3758 33.4179L27.7136 37.4146C27.5678 37.5017 27.3809 37.4805 27.2587 37.3625C27.1362 37.2442 27.1086 37.0583 27.1911 36.9097L28.5764 34.4137C28.7154 34.1642 28.71 33.8561 28.5618 33.6092L28.5618 33.6091Z" fill="#168AC3"/>
<path d="M54.6181 43.6577C53.9238 44.8157 52.7819 45.6083 51.4025 45.8901C50.0353 46.1688 48.5974 45.9117 47.353 45.1656L40.686 41.1661C40.3616 40.9715 40.1321 40.6624 40.0402 40.2953C39.949 39.9289 40.006 39.5484 40.2004 39.2243C40.3217 39.0216 40.4918 38.8619 40.689 38.7439L40.6871 38.7427C40.3627 38.5481 40.1333 38.239 40.0419 37.8724C39.95 37.5058 40.007 37.125 40.2016 36.8004C40.3269 36.5919 40.4987 36.4289 40.6947 36.3132C40.4101 36.1174 40.2051 35.8331 40.1208 35.4957C40.0289 35.1288 40.0859 34.7483 40.2805 34.4242C40.4749 34.0997 40.7842 33.8705 41.1508 33.7789C41.2653 33.7501 41.3815 33.736 41.4965 33.736C41.7222 33.7362 41.9436 33.7935 42.1472 33.9C42.1597 33.6363 42.2381 33.3774 42.3922 33.1552C42.8146 32.5458 43.6609 32.3771 44.3201 32.7726L49.7796 36.0474L49.0759 34.7799C48.8059 34.296 48.8158 33.699 49.1021 33.2216C49.2415 32.9893 49.4408 32.7964 49.679 32.6628C49.8748 32.5544 50.0869 32.5031 50.296 32.5031C50.7453 32.5033 51.1817 32.7403 51.4139 33.1599C52.2235 34.6185 53.7511 37.3694 53.8585 37.5614C53.8813 37.5946 53.9504 37.6936 54.0095 37.7777C54.0658 37.8575 54.1266 37.9339 54.1895 38.0097C55.5527 39.6622 55.7171 41.8262 54.6181 43.6578L54.6181 43.6577ZM53.6091 38.4892C53.5341 38.3985 53.4606 38.3059 53.3937 38.2105C53.1902 37.9217 53.185 37.9141 53.1697 37.8385C52.9317 37.4448 52.3512 36.3997 50.7555 33.5249C50.6156 33.2726 50.2975 33.1805 50.0443 33.3204C49.9196 33.3901 49.8195 33.4874 49.7465 33.6093C49.5985 33.8559 49.5928 34.1641 49.7326 34.4143L51.1174 36.9095C51.2001 37.0584 51.1725 37.2441 51.0503 37.3623C50.9282 37.4808 50.7416 37.5016 50.5951 37.4144L43.9329 33.4177C43.6189 33.2295 43.2049 33.3032 43.0108 33.5836C42.8991 33.7447 42.8635 33.937 42.9102 34.1247C42.9531 34.2963 43.0607 34.4409 43.2132 34.5323C43.2136 34.5326 43.2139 34.533 43.2143 34.5333L47.5703 37.1465C47.7484 37.2535 47.8062 37.4844 47.6992 37.6627C47.5922 37.8406 47.3616 37.8988 47.183 37.7916L41.8352 34.5835C41.6834 34.4925 41.5048 34.4657 41.3333 34.5088C41.1613 34.5517 41.0167 34.6591 40.9255 34.8115C40.8341 34.9635 40.8077 35.1418 40.8501 35.3133C40.893 35.4849 41.0007 35.6297 41.1529 35.7212L42.1935 36.3453L46.5005 38.9293C46.6786 39.0363 46.7363 39.2672 46.6293 39.4455C46.5224 39.6234 46.2917 39.6814 46.1131 39.5744L41.7562 36.9604C41.4429 36.7719 41.0348 36.8742 40.8464 37.188C40.755 37.3402 40.7286 37.5186 40.771 37.6901C40.8139 37.8616 40.9215 38.0062 41.0739 38.0979L42.1422 38.7387L45.4308 40.7119C45.609 40.8188 45.6667 41.0497 45.5597 41.2281C45.4528 41.4059 45.2221 41.4644 45.0435 41.3569L41.7548 39.3838C41.6031 39.2928 41.4252 39.266 41.2528 39.3091C41.0813 39.352 40.9361 39.4594 40.845 39.6114C40.7538 39.7636 40.7272 39.9421 40.7696 40.1134C40.8124 40.2849 40.9201 40.4296 41.0725 40.5212L47.7395 44.5207C48.8214 45.1698 50.0691 45.3945 51.2514 45.1533C52.4213 44.9144 53.3878 44.246 53.9725 43.2711C54.9175 41.6968 54.7816 39.9091 53.6095 38.4892L53.6091 38.4892Z" fill="#168AC3"/>
</svg>
