<svg width="65" height="56" viewBox="0 0 65 56" fill="none" xmlns="http://www.w3.org/2000/svg">
<path d="M65 38C65 47.9411 56.9411 56 47 56L20 56C17.2386 56 15 53.7614 15 51L15 17C15 11.4772 19.4772 7 25 7L60 7C62.7614 7 65 9.23858 65 12L65 38Z" fill="#FFCC9B"/>
<path d="M43.3117 30.6446C43.0709 30.6446 42.8473 30.5784 42.6487 30.4719V30.4748C42.6487 30.8536 42.5014 31.2094 42.2343 31.4758C41.9671 31.743 41.6116 31.8903 41.2332 31.8903C40.9889 31.8903 40.7625 31.8224 40.5617 31.7131C40.5415 32.0597 40.4029 32.3836 40.1558 32.631C39.8886 32.8982 39.5331 33.0454 39.1545 33.0454C38.4022 33.0454 37.7913 32.4541 37.7473 31.7129C37.5145 31.8387 37.2513 31.9046 36.9799 31.8872C36.2398 31.8387 35.6603 31.1993 35.6603 30.4312V24.0645L34.9353 25.3205C34.6592 25.8009 34.1423 26.0991 33.5858 26.0991C33.3147 26.0991 33.0468 26.028 32.8095 25.892C32.5141 25.7208 32.3028 25.4458 32.2149 25.1169C32.1265 24.7878 32.1722 24.4436 32.3431 24.1486C32.3433 24.1486 34.715 20.0414 34.8597 19.7891C34.8769 19.7512 34.9259 19.6411 34.9676 19.5474C35.0075 19.4578 35.0416 19.366 35.0744 19.2736C35.7896 17.2543 37.5607 16 39.6966 16C42.4703 16 44.7268 18.4469 44.7268 21.4546L44.727 29.2289C44.727 29.6073 44.58 29.9628 44.3131 30.2302C44.0459 30.4974 43.6904 30.6447 43.3116 30.6447L43.3117 30.6446ZM39.6966 16.7521C37.8613 16.7521 36.3984 17.7888 35.7833 19.5251C35.744 19.6354 35.703 19.7457 35.6552 19.8531C35.5164 20.1643 35.5164 20.1643 35.4773 20.2091L35.4721 20.2046C35.2784 20.57 34.7031 21.5663 32.9943 24.525C32.9241 24.6463 32.9055 24.7872 32.9413 24.922C32.9776 25.0567 33.0645 25.1703 33.1849 25.2398C33.5586 25.4544 34.0703 25.3159 34.2833 24.9448L35.7108 22.4734C35.7961 22.3261 35.9685 22.2538 36.1339 22.2986C36.2983 22.3426 36.4126 22.4918 36.4126 22.6619V30.4314C36.4126 30.798 36.6892 31.1144 37.0292 31.1368C37.2252 31.1471 37.408 31.0814 37.5454 30.9443C37.6702 30.8194 37.739 30.6531 37.739 30.4752V25.3938C37.739 25.186 37.9075 25.0176 38.1153 25.0176C38.3231 25.0176 38.4915 25.1858 38.4915 25.3938L38.4913 31.6302C38.4913 31.9958 38.7889 32.2934 39.1545 32.2934C39.3321 32.2934 39.499 32.2246 39.6241 32.0997C39.7489 31.9746 39.8177 31.8078 39.8177 31.6302V25.3938C39.8177 25.186 39.9859 25.0176 40.194 25.0176C40.4018 25.0176 40.5702 25.1858 40.5702 25.3938L40.57 30.4168V30.4752C40.57 30.8406 40.8675 31.1381 41.2334 31.1381C41.4108 31.1381 41.5772 31.0691 41.703 30.9438C41.8278 30.8191 41.8966 30.6528 41.8966 30.4749V25.3936C41.8966 25.1858 42.0649 25.0173 42.2729 25.0173C42.4807 25.0173 42.6491 25.1855 42.6491 25.3936L42.6487 29.2291C42.6487 29.595 42.9462 29.8925 43.3116 29.8925C43.4895 29.8925 43.6558 29.8235 43.7807 29.6989C43.906 29.5736 43.9746 29.4067 43.9746 29.2291L43.9748 21.4548C43.9748 18.862 42.0557 16.7522 39.6966 16.7522L39.6966 16.7521Z" fill="#168AC3"/>
<path d="M28.5292 36.0481L33.9889 32.7728C34.6472 32.3774 35.4942 32.5454 35.9164 33.1554C36.0704 33.3776 36.1491 33.6365 36.1614 33.9001C36.3649 33.7939 36.5864 33.7362 36.8119 33.7362C36.9273 33.7362 37.0432 33.7505 37.1577 33.779C37.5245 33.8707 37.8336 34.0999 38.028 34.4241C38.2226 34.7487 38.2794 35.1292 38.1878 35.4956C38.1032 35.8346 37.897 36.12 37.6103 36.3157C37.8108 36.434 37.9837 36.5954 38.1067 36.8008C38.3013 37.1255 38.3581 37.5058 38.2667 37.8726C38.1751 38.239 37.9458 38.548 37.6212 38.7429L37.6193 38.7441C37.8162 38.8621 37.9861 39.0219 38.1077 39.2242C38.3025 39.5489 38.3593 39.9294 38.2676 40.2962C38.1758 40.6628 37.9465 40.9719 37.6224 41.1665L30.956 45.1658C29.7118 45.9119 28.2734 46.1695 26.9065 45.8903C25.5273 45.6085 24.3851 44.8157 23.6906 43.658C22.5915 41.8262 22.7562 39.662 24.1196 38.0102C24.182 37.9348 24.2435 37.858 24.2994 37.7784C24.3585 37.6943 24.4275 37.5953 24.4511 37.5614C24.5922 37.3093 26.895 33.1604 26.8947 33.1609C27.1273 32.7413 27.5631 32.5038 28.0126 32.504C28.2223 32.504 28.4351 32.5556 28.6313 32.6645C28.8683 32.7969 29.0674 32.9898 29.2067 33.2223C29.4929 33.6994 29.5031 34.2965 29.2335 34.7796L28.5292 36.0481ZM28.562 33.6091C28.4889 33.4873 28.3886 33.3903 28.2658 33.3215C28.0121 33.1811 27.6926 33.2725 27.5529 33.5253C25.9052 36.4938 25.3435 37.5054 25.1267 37.8654L25.1317 37.8666C25.1135 37.9269 25.1135 37.9269 24.9151 38.2104C24.8478 38.3062 24.7745 38.3984 24.6998 38.4891C23.5274 39.9095 23.3913 41.697 24.3353 43.271C24.9201 44.2459 25.8865 44.9143 27.0567 45.1532C28.2396 45.3937 29.4864 45.1699 30.5686 44.5206L37.2356 40.5211C37.3878 40.43 37.4952 40.2851 37.5381 40.1133C37.581 39.9418 37.5543 39.7635 37.4629 39.6113C37.2749 39.2979 36.8666 39.195 36.5533 39.3837L33.2644 41.3568C33.0862 41.4638 32.8549 41.4063 32.7482 41.228C32.6412 41.0498 32.6989 40.8187 32.877 40.7118L36.1662 38.7386L37.2344 38.0978C37.3866 38.0064 37.4943 37.8615 37.5371 37.6902C37.58 37.5185 37.5534 37.3399 37.462 37.1879C37.2737 36.8743 36.8655 36.7723 36.5523 36.9603L32.195 39.5743C32.0164 39.6815 31.7857 39.6235 31.6788 39.4454C31.5718 39.2673 31.6298 39.0362 31.8076 38.9292L37.1555 35.7211C37.3077 35.6297 37.4151 35.485 37.458 35.3133C37.5009 35.1418 37.4742 34.9634 37.3831 34.8112C37.2919 34.6593 37.147 34.5518 36.9753 34.509C36.8026 34.4661 36.6249 34.4927 36.4732 34.5837L35.4832 35.1776C35.483 35.1776 35.483 35.1778 35.4827 35.1778H35.4825L31.1254 37.7918C30.9468 37.8992 30.7159 37.8413 30.6092 37.6629C30.5022 37.4848 30.5602 37.2537 30.738 37.1467L35.0954 34.5328C35.2476 34.4414 35.3553 34.2965 35.3982 34.1252C35.4453 33.9372 35.4095 33.7449 35.2978 33.5838C35.1041 33.3037 34.69 33.2292 34.3759 33.4179L27.7137 37.4146C27.5679 37.5018 27.3811 37.4806 27.2588 37.3626C27.1363 37.2443 27.1087 37.0584 27.1912 36.9097L28.5765 34.4138C28.7155 34.1643 28.7101 33.8561 28.5619 33.6092L28.562 33.6091Z" fill="#168AC3"/>
<path d="M54.6183 43.6577C53.924 44.8157 52.7821 45.6083 51.4027 45.8901C50.0355 46.1688 48.5977 45.9117 47.3532 45.1656L40.6862 41.1661C40.3618 40.9715 40.1323 40.6624 40.0404 40.2953C39.9493 39.9289 40.0063 39.5484 40.2006 39.2243C40.322 39.0216 40.4921 38.8619 40.6893 38.7439L40.6874 38.7427C40.363 38.5481 40.1335 38.239 40.0421 37.8724C39.9502 37.5058 40.0072 37.125 40.2018 36.8004C40.3272 36.5919 40.4989 36.4289 40.6949 36.3132C40.4103 36.1174 40.2054 35.8331 40.121 35.4957C40.0291 35.1288 40.0862 34.7483 40.2808 34.4242C40.4751 34.0997 40.7845 33.8705 41.1511 33.7789C41.2656 33.7501 41.3817 33.736 41.4967 33.736C41.7224 33.7362 41.9439 33.7935 42.1474 33.9C42.1599 33.6363 42.2384 33.3774 42.3924 33.1552C42.8149 32.5458 43.6611 32.3771 44.3203 32.7726L49.7799 36.0474L49.0762 34.7799C48.8062 34.296 48.8161 33.699 49.1023 33.2216C49.2418 32.9893 49.4411 32.7964 49.6793 32.6628C49.8751 32.5544 50.0871 32.5031 50.2963 32.5031C50.7456 32.5033 51.1819 32.7403 51.4142 33.1599C52.2237 34.6185 53.7513 37.3694 53.8587 37.5614C53.8816 37.5946 53.9506 37.6936 54.0098 37.7777C54.0661 37.8575 54.1268 37.9339 54.1898 38.0097C55.5529 39.6622 55.7174 41.8262 54.6183 43.6578L54.6183 43.6577ZM53.6093 38.4892C53.5344 38.3985 53.4609 38.3059 53.394 38.2105C53.1904 37.9217 53.1852 37.9141 53.1699 37.8385C52.932 37.4448 52.3515 36.3997 50.7558 33.5249C50.6158 33.2726 50.2978 33.1805 50.0445 33.3204C49.9199 33.3901 49.8197 33.4874 49.7467 33.6093C49.5987 33.8559 49.5931 34.1641 49.7328 34.4143L51.1177 36.9095C51.2003 37.0584 51.1728 37.2441 51.0505 37.3623C50.9285 37.4808 50.7419 37.5016 50.5953 37.4144L43.9331 33.4177C43.6191 33.2295 43.2052 33.3032 43.011 33.5836C42.8993 33.7447 42.8638 33.937 42.9104 34.1247C42.9533 34.2963 43.061 34.4409 43.2134 34.5323C43.2139 34.5326 43.2141 34.533 43.2146 34.5333L47.5706 37.1465C47.7487 37.2535 47.8064 37.4844 47.6994 37.6627C47.5925 37.8406 47.3618 37.8988 47.1832 37.7916L41.8354 34.5835C41.6837 34.4925 41.5051 34.4657 41.3336 34.5088C41.1616 34.5517 41.0169 34.6591 40.9258 34.8115C40.8343 34.9635 40.808 35.1418 40.8504 35.3133C40.8932 35.4849 41.0009 35.6297 41.1531 35.7212L42.1938 36.3453L46.5007 38.9293C46.6788 39.0363 46.7365 39.2672 46.6296 39.4455C46.5226 39.6234 46.292 39.6814 46.1134 39.5744L41.7565 36.9604C41.4431 36.7719 41.0351 36.8742 40.8466 37.188C40.7552 37.3402 40.7288 37.5186 40.7712 37.6901C40.8141 37.8616 40.9218 38.0062 41.0742 38.0979L42.1424 38.7387L45.4311 40.7119C45.6092 40.8188 45.6669 41.0497 45.56 41.2281C45.453 41.4059 45.2223 41.4644 45.0438 41.3569L41.7551 39.3838C41.6033 39.2928 41.4255 39.266 41.253 39.3091C41.0815 39.352 40.9364 39.4594 40.8452 39.6114C40.754 39.7636 40.7274 39.9421 40.7698 40.1134C40.8127 40.2849 40.9204 40.4296 41.0728 40.5212L47.7398 44.5207C48.8217 45.1698 50.0694 45.3945 51.2516 45.1533C52.4216 44.9144 53.388 44.246 53.9728 43.2711C54.9178 41.6968 54.7818 39.9091 53.6097 38.4892L53.6093 38.4892Z" fill="#168AC3"/>
</svg>
